<?xml version="1.0" encoding="UTF-8"?>
<svg width="1920" height="1080" version="1.1" viewBox="0 0 1919.9999 1080" xmlns="http://www.w3.org/2000/svg">
 <g transform="translate(402.86 273.35)">
  <path transform="translate(-402.86 -273.35)" d="m580.97 135.32s-3.0234-0.0475-3.0234 2.5898l-0.44727 76.641c-0.90709 5.1801-1.2734 4.7661-3.9941 11.686-1.6016 22.867-1.9893 51.153-3.4941 80.949-23.965 0.94384-41.068 4.7911-41.086 9.2422 0.0256 4.0047 13.935 7.573 34.732 8.9102v8.5098c-25.027 1.3436-43.303 5.5448-43.303 10.527 0.0293 3.4638 9.0513 6.7221 24.342 8.791h-0.11719l-0.93555 10.871h0.16602c-20.21 2.0636-32.524 5.7026-32.562 9.623 5.4018 35.038 39.967 59.112 48.992 90.141 2.4678 8.6233 3.0688 18.865 2.127 36.234-0.21737 4.0094-0.50962 11.728-0.64844 17.152-0.13894 5.4245-0.33702 11.115-0.44336 12.648-0.10635 1.533-0.30038 6.8402-0.42773 11.793-0.12736 4.9528-0.3231 10.163-0.43945 11.578s-0.40686 7.9764-0.64258 14.58c-0.23567 6.6037-0.51636 14.031-0.625 16.508-0.10863 2.4764-0.30205 7.5917-0.42969 11.365-0.42864 12.671-0.66218 18.84-0.875 23.154-0.11635 2.3585-0.40026 9.6932-0.63281 16.297-0.23254 6.6037-0.52485 13.84-0.64649 16.08-0.12178 2.2406-0.41443 10.248-0.65234 17.795-0.23794 7.5471-0.71011 20.185-1.0488 28.086-0.68661 16.018-0.9667 24.074-1.3184 37.951-0.13151 5.1886-0.31553 10.399-0.41015 11.578-0.0946 1.1792-0.27837 5.0385-0.41016 8.5762s-0.33425 8.8449-0.44531 11.793-0.30629 9.0248-0.4375 13.506c-0.13122 4.4811-0.32204 9.7883-0.42383 11.793-0.24035 4.7329-0.57713 12.837-0.8457 20.367-0.26517 7.4355-0.60986 15.571-0.86329 20.369-0.1059 2.0047-0.30203 7.12-0.43554 11.365-0.1335 4.2452-0.43287 11.964-0.66211 17.152-0.43447 9.833-1.083 26.129-1.4961 37.521-0.13252 3.6556-0.31792 7.8037-0.41211 9.2188-0.0942 1.4151-0.30739 7.1446-0.47266 12.73l-0.29883 10.156-2.1894 0.71094c-1.2025 0.39267-3.8234 1.3522-5.8281 2.1328-2.0047 0.78061-6.2516 2.4172-9.4355 3.6348-3.1839 1.2174-6.4656 2.4844-7.291 2.8144-2.9594 1.1837-25.594 9.7479-29.541 11.178-3.9463 1.4298-4.1239 1.4551-8.7226 1.1758-3.3254-0.20197-4.7593-0.45498-4.916-0.86329-0.16646-0.43386-1.3749-0.57422-4.8906-0.57421h-4.6738v-9.0059l-8.6816-0.10743c-11.637-0.14365-30.415 0.0419-30.676 0.30274-0.11521 0.1152-0.3051 2.034-0.42188 4.2656l-0.21093 4.0586-9.9141-0.21094c-5.4521-0.1162-19.561-0.39676-31.354-0.62305-11.792-0.22624-21.633-0.41969-21.869-0.42968-1.3175-0.0567-28.043 0.5073-31.197 0.6582l-3.752 0.17969v-6.2793l-2.0352-0.35547c-1.1203-0.19382-3.2912-0.38724-4.8242-0.42969-1.533-0.0426-3.0779-0.0968-3.4316-0.12304-0.55721-0.0409-0.60644-1.091-0.37109-7.8711 0.14943-4.3046 0.32121-15.738 0.38281-25.408 0.0616-9.6696 0.14876-18.741 0.19336-20.156 0.1458-4.634 0.86748-66.384 0.81445-69.682-0.087-5.4177 0.66034-4.9005-7.4199-5.1465l-7.0449-0.21484-0.0293-1.9297c-0.0216-1.3022-0.20861-1.8946-0.57031-1.8223-0.89663 0.17933-0.59485-0.63274 0.32422-0.87305 0.62448-0.16333 0.85742-0.58484 0.85742-1.5508 0-1.1607-0.1499-1.3258-1.1816-1.3301-0.64858-1e-3 -1.7152-0.28378-2.373-0.62695-1.2814-0.66839-1.4756-0.47366-2.1328 2.1309-0.11907 0.47169-0.24028-1.2166-0.26758-3.752l-0.0508-4.6094h-11.146v-1.3144c0-1.2237-0.0962-1.303-1.3945-1.1777-1.0362 0.0999-1.362 0.32104-1.2715 0.86524 0.22158 1.3321-2.1365 2.1059-6.1445 2.0176-3.2219-0.071-3.627-0.16836-3.627-0.8789 0-0.43962-0.19189-0.79883-0.42774-0.79883-0.39469 0-0.60454 0.60644-0.48047 1.3926 0.0279 0.17689-0.12818 0.32226-0.34765 0.32226-0.21944 0-0.46179-0.43223-0.53711-0.96289-0.0941-0.66247-0.3799-0.92379-0.91797-0.83203-0.49942 0.0852-0.86754-0.18766-1.0156-0.7539-0.20303-0.77654-0.52495-0.87731-2.541-0.79297-2.4462 0.10234-2.6238 0.26536-1.7734 1.6582 0.4561 0.74703 0.41336 0.97101-0.29492 1.4961-1.2342 0.91504-5.2223 0.82141-5.7793-0.13476-0.2404-0.41273-0.44207-0.51851-0.44922-0.23438-0.0186 0.73593-1.7171 0.91417-11.209 1.1621l-8.4082 0.2168-0.48047-1.0547c-0.54329-1.1924-1.6544-1.3544-2.8848-0.42383-0.81151 0.61409-0.80571 0.62971 0.13477 0.64258 0.53066 7e-3 0.96484 0.19211 0.96484 0.41016 0 0.23156-4.6638 0.41653-11.209 0.4414-6.1636 0.0233-11.324 0.10755-11.469 0.19141-0.14532 0.0839-5.2785 0.2889-11.406 0.45508-6.1278 0.16634-11.262 0.37741-11.41 0.46875-0.54809 0.33876-15.688 0.17557-17.756-0.19141-1.6822-0.29853-2.2174-0.25058-2.4863 0.2168-0.46894 0.81457-2.3995 0.78484-2.2793-0.0352 0.0509-0.34691 0.217-0.75412 0.36718-0.90429 0.15017-0.15006 0.0426-0.66353-0.23828-1.1406-0.39967-0.67881-0.39422-0.91057 0.0254-1.0625 1.0781-0.39043 0.59238-2.0566-0.74804-2.5625-1.4159-0.53448-1.666-0.14247-0.59375 0.92969 0.63765 0.63768 0.63765 0.75241 0 1.457-0.86856 0.95973-0.89273 1.5087-0.0508 1.1856 0.81239-0.31175 0.84197 0.9291 0.0469 1.9766-0.59009 0.77735-2.6609 1.0819-2.1914 0.32226 0.14576-0.23584 0.0603-0.42773-0.18945-0.42773-0.24964 0-0.45312 0.19189-0.45312 0.42773 0 0.23585-1.0751 0.42969-2.3887 0.42969-2.2314 0-2.378-0.0654-2.25-0.9668 0.0753-0.53066 0.33057-0.97294 0.56641-0.98437 0.23585-0.0114 0.86192-0.16844 1.3926-0.34961 1.4352-0.49005 1.3413-2.6911-0.14258-3.3672-1.5902-0.72456-2.5371 0.012-2.5371 1.9688 0 0.85591-0.14342 1.5548-0.32031 1.5547-0.17688-1.7e-4 -0.32421 0.38572-0.32422 0.85742 0 0.6632-0.28451 0.85742-1.2598 0.85742-0.69362 0-1.4016-0.2277-1.5723-0.5039-0.20665-0.33434-0.4233-0.19705-0.64649 0.40625-0.20221 0.54665-0.67236 0.88082-1.1875 0.8418-1.3245-0.0998-1.4256-1.2898-0.42382-4.9766 0.088-0.32415-0.0821-0.67905-0.37696-0.78711-0.37993-0.13936-0.53515 0.3818-0.53515 1.7891v1.9844l-1.0586-0.76953c-0.58219-0.42375-1.0651-1.0056-1.0723-1.293-7e-3 -0.28716-0.30248-0.41313-0.65625-0.27734-0.72859 0.27958-0.89868 2.7285-0.18946 2.7285 0.24978 0 0.32817 0.20265 0.17579 0.44922-0.15239 0.24649-1.1769 0.40759-2.2774 0.35742-1.1004-0.0502-2.4507 0.14742-3 0.44141-0.85422 0.45716-1.0823 0.42083-1.5762-0.25-0.50819-0.69027-0.60846-0.70173-0.83984-0.10547-0.14459 0.3726-0.68828 0.64364-1.209 0.60547-0.78565-0.0579-1.0082-0.42797-1.2969-2.1777-0.19136-1.1597-0.36345-2.3982-0.38477-2.752-0.0213-0.35377-0.25061-0.80128-0.50976-0.99609-0.33483-0.25184-0.31847-0.41764 0.0625-0.57227 0.57242-0.23224 0.75593-1.4392 0.21679-1.4277-1.1512 0.0235-1.4779 0.83193-1.1875 2.9434 0.16616 1.2081 0.49127 2.1973 0.72071 2.1973 0.22932 0 0.35587 0.53111 0.28125 1.1797-0.12864 1.1177-0.27525 1.1913-2.7949 1.3945-2.3921 0.19292-2.6814 0.12519-2.8887-0.64648-0.38991-1.4517-0.26707-4.0058 0.20703-4.2988 0.31138-0.1924 0.30618-0.44975-0.0176-0.83984-0.34341-0.41372-0.31902-0.61678 0.0879-0.76172 0.30511-0.10863 0.43609-0.32473 0.29296-0.48047-0.38347-0.41733-1.7075 0.18831-1.4219 0.65039 0.32515 0.52611-0.22374 2.9453-0.66797 2.9453-0.19248 0-0.31003-0.77182-0.26172-1.7168 0.0793-1.5542 6e-3 -1.6917-0.79297-1.4434-2.9332 0.91215-2.8042 0.69572-2.6973 4.4473l0.0977 3.4609-2.1152 0.6289c-2.4578 0.72966-3.836 0.80725-3.459 0.19727 0.48878-0.79086-0.2826-0.43944-1.0117 0.46094-0.62927 0.77714-1.2648 0.90652-5 1.0059-2.3535 0.0626-5.4187 0.4308-6.8106 0.81836-2.5892 0.72096-3.4449 1.1376-2.3652 1.1543 0.71039 0.0114-1.2745 1.6827-2.0156 1.6973-0.31567 6e-3 -0.553 1.8723-0.69727 5.4746-0.1205 3.007-0.35165 5.7843-0.51171 6.166-0.24141 0.57577 0.92216 0.40281 6.8203-1.0078 3.9108-0.93533 7.3926-1.5929 7.7363-1.4609 1.3331 0.51158 0.0374 1.4457-2.918 2.1055-1.6997 0.3795-8.4496 1.9488-15.002 3.4883-6.5523 1.5395-12.421 2.8682-13.041 2.9512-1.0998 0.1473-2.1823 1.7599-1.4746 2.1973 0.31721 0.19605 10.69-2.0028 19.996-4.2402 8.4892-2.0411 11.736-2.8008 11.99-2.8008 0.14266 0 0.2029 2.3602 0.13672 5.2441l-0.1211 5.2441-2.1426 0.49023c-3.4605 0.78949-23.287 5.1726-26.908 5.9492-3.0387 0.65171-3.3242 0.8024-3.3242 1.7559 0 1.2285-0.13134 1.21 2.9395 0.42187 2.1474-0.5511 5.5895-1.2919 16.145-3.4688 1.6509-0.34048 5.1225-1.0972 7.7168-1.6836 2.5943-0.58644 4.9591-1.0705 5.2539-1.0762 0.39937-9e-3 0.53516 1.2886 0.53516 5.0879v5.0977l-3.1094 0.71289c-2.9042 0.66564-11.59 2.5206-24.441 5.2168-4.7446 0.99536-5.4668 1.2561-5.4668 1.9824 0 0.74954 0.23337 0.81777 2.25 0.63476 1.2382-0.11235 4.4714-0.70096 7.1836-1.3047 2.7122-0.60361 8.599-1.8608 13.08-2.7969 4.4811-0.93602 8.6989-1.8427 9.375-2.0137l1.2305-0.3125-0.30078 5.3125c-0.16606 2.9216-0.35046 5.3612-0.40821 5.4199-0.11621 0.11821-11.173 2.3159-22.119 4.3984-9.9135 1.8861-10.291 1.9981-10.291 3.0684 0 0.8216 0.17018 0.87511 2.041 0.62696 1.1225-0.14893 8.3692-1.5262 16.105-3.0586 7.7363-1.5324 14.153-2.7852 14.256-2.7852 0.28712 0 0.22363 6.5754-0.0781 8.084-0.22558 1.128-0.50453 1.3681-1.8242 1.5801-0.85601 0.1375-2.4231 0.4215-3.4844 0.62695-4.8302 0.93494-11.958 2.2506-18.654 3.4492-8.9393 1.6001-8.791 1.5564-8.791 2.6387 0 0.79969 0.19496 0.86157 2.0391 0.65625 2.169-0.24146 12.264-2.0733 23.383-4.2461 3.7225-0.72739 6.8389-1.2485 6.9258-1.1582 0.26521 0.2756 0.34261 1.7154 0.29101 5.3984l-0.0469 3.5195-1.6484 0.44531c-1.9634 0.52869-5.3246 1.1826-8.8574 1.7246-5.2529 0.80591-20.609 3.4636-21.334 3.6914-0.42584 0.13379-0.75195 0.657-0.75195 1.2109v0.97656l13.4-2.3047c7.3702-1.2675 14.546-2.5017 15.943-2.7422s2.6985-0.53632 2.8926-0.65625c0.19413-0.11992 0.35547 1.7089 0.35547 4.0644 0 5.758 0.45459 5.3716-7.9356 6.6973-24.686 3.9003-25.084 3.9824-25.084 5.1367 0 0.95072 0.0048 0.95266 3.7539 0.42187 2.0637-0.29219 8.6695-1.3377 14.684-2.3242 6.0141-0.98656 11.659-1.9009 12.543-2.0312 1.5794-0.2328 1.6096-0.21128 1.6699 1.2129 0.0938 2.2162-0.13145 7.4148-0.33594 7.7559-0.31571 0.52637-1.3448-0.1125-1.5703-0.97461-0.17818-0.68134-0.60487-0.83007-2.4024-0.83007-1.2013 0-2.329-0.026-2.5059-0.0586-0.17689-0.0327-0.57475 0.44908-0.88281 1.0723-1.0348 2.0932-3.759 2.7749-6.5801 1.6426-0.94576-0.37958-1.263-0.31676-1.8926 0.3789-0.6369 0.70372-1.1029 0.79153-2.9375 0.5586-1.199-0.15223-2.4194-0.46467-2.7109-0.69532-0.35418-0.28019-1.5636-0.15422-3.6445 0.37696-1.7131 0.43732-3.5339 0.7412-4.0469 0.67773-0.57328-0.071-1.1923 0.25695-1.6074 0.84961-0.37145 0.53032-0.69097 0.87321-0.70898 0.76172-0.18497-1.1423-0.36325-1.8146-0.52734-1.9785-0.28441-0.28443-0.87546 23.248-0.60938 24.266 0.31734 1.2135-0.55433 1.3688-6.1777 1.1133-7.6741-0.34809-30.751-0.35148-33.711-6e-3l-2.6797 0.3125v3.2832l-3.3242 0.125-3.3223 0.12696-0.27148 4.502c-0.14798 2.4764-0.29144 4.6148-0.32031 4.7539-0.17746 0.85372-4.0234 1.6888-10.986 2.3867-1.4151 0.14179-2.8769 0.52159-3.248 0.84375-0.41489 0.36016-2.6447 0.75238-5.7891 1.0156-7.2578 0.60767-7.6578 0.75108-7.8281 2.8203-0.0763 0.92777-0.38894 1.9783-0.69922 2.332-0.79033 0.90115-1.4308 28.873-0.68164 29.775 0.27755 0.33443 0.52376 1.2176 0.54492 1.9629 0.0455 1.6008 0.03919 1.5993 4.2871 2.0215 2.7878 0.2771 3.2464 0.42894 2.9102 0.9707-0.32837 0.52901-1.6377 0.64649-7.3828 0.64649-5.3589 0-6.9611-0.12588-6.8789-0.53711 0.0589-0.29481-0.18139-0.53516-0.53516-0.53516s-0.64258 0.31268-0.64258 0.69531c0 0.56981-0.11769 0.59933-0.64453 0.16211-0.44439-0.36868-0.64258-0.38731-0.64258-0.0547 0 0.11178-0.25818 0.19767-0.60547 0.27149l-2e-5 89.401h1920v-79.451l-3.0019 0.2793c-2.7563 0.2562-3.9663-0.1217-2.3594-0.7383 0.8818-0.33808 0.9162-4.1347 0.037-4.1347-1.1826 0-1.9668 0.5321-1.9668 1.334 0 0.44643-0.2889 0.8086-0.6426 0.8086-0.6112 0-0.7383-0.80761-0.7383-4.7148 0-0.4717 0.021-1.0329 0.047-1.248 0.026-0.21514 0.8203-0.52225 1.7637-0.68165l1.7148-0.28906v-2.2617c0-2.1847-0.037-2.254-1.0781-2.0547-0.5935 0.11335-1.053 0.42286-1.0215 0.68945 0.1372 1.1514-0.098 1.5586-0.9023 1.5586-0.7793 0-0.8574-0.28671-0.8574-3.166v-3.166l1.9296-0.48633c1.4681-0.36968 1.9297-0.68657 1.9297-1.3281 0-1.0379-1.2468-1.3997-4.3554-1.2598-1.2603 0.0566-2.8284 0.0736-3.4864 0.0371l-1.1992-0.0644 0.061-3.752c0.031-2.0636-0.08-4.0912-0.2461-4.5039-0.1658-0.41273-0.2089-0.75-0.1-0.75 0.2061 0 6.5351 2.774 11.607 5.0879 2.7315 1.2461 2.9123 1.2771 2.7851 0.47266-0.099-0.62573-1.2484-1.3627-4.2089-2.6992-2.2405-1.0115-5.4234-2.5026-7.0743-3.3145l-3.0039-1.4766-0.1308-2.0957c-0.073-1.1532 0.039-2.2712 0.25-2.4824 0.417-0.41714 1.6311 0.053 9.1035 3.5254 2.6209 1.2179 4.8729 2.1074 5.0058 1.9746 0.7009-0.70081-0.9004-1.6714-8.1406-4.9219-7.2458-3.253-8.0912-3.744-9.4883-5.5371-0.8431-1.0823-1.5292-2.0805-1.5293-2.2188-2e-4 -0.13808-0.4987-0.28124-1.1035-0.3164-0.6046-0.035-1.1747-0.13811-1.2676-0.23047-0.093-0.0923-0.3808-8.264-0.6445-18.16-0.3765-14.127-0.6089-18.195-1.084-18.934-0.5267-0.81967-0.5168-1.0973 0.09-2.1562 0.5565-0.96958 0.6334-1.8028 0.3847-4.125-0.1962-1.8335-0.5282-2.9946-0.8984-3.1367-0.3981-0.15279-0.507-0.62743-0.3379-1.4727l0.2481-1.248h-2.4122c-2.214 0-2.414-0.0772-2.414-0.96289 0-0.53054-0.2047-7.3269-0.4473-15.102-0.3166-10.143-0.5884-14.238-0.9609-14.502-0.2857-0.20211-11.808-0.25433-25.606-0.11328l-25.084 0.25781-1.3965 1.5957c-2.6446 3.0292-3.1054 4.5342-3.1054 10.094 0 2.7557-0.1697 5.0098-0.377 5.0098s-1.5067-0.67878-2.8867-1.5098c-3.3102-1.9933-5.3332-2.5595-8.959-2.5098-4.7849 0.0658-7.3515 1.2896-11.924 5.6875-3.6456 3.5066-4.8607 5.3079-5.5977 8.3027-0.4753 1.9313 0.5314 1.3762 1.4688-0.81054 0.4691-1.0947 0.9115-1.9146 0.9844-1.8223 0.073 0.0923 0 1.517-0.1465 3.168-0.1547 1.6509-0.1408 3.0989 0.029 3.2168 0.3272 0.22778 0.5276 1.1509 0.4433 2.0371-0.1 1.0521-1.3359 0.55694-1.3359-0.53516 0-1.2577-0.2861-1.334-1.3652-0.35742-0.7411 0.67076-0.831 0.66513-1.3946-0.10547-0.5765-0.78837-0.6148-0.77434-0.8925 0.33203-0.1639 0.63486-0.1708 1.3582-0.018 1.6074 0.1899 0.30729-1.1579 0.45117-4.1875 0.45117-4.9086 0-3.6696 0.40833-15.307-5.0273-7.8577-3.6702-9.6185-4.4842-16.295-7.5293-3.8915-1.7748-11.705-5.3914-17.365-8.0352-5.6604-2.6437-11.115-5.1771-12.117-5.6328l-1.8184-0.83007-0.018-3.0898c0-1.6989-0.1001-5.1135-0.2149-7.5898-0.1144-2.4764-0.4054-12.222-0.6426-21.656-0.2373-9.4339-0.5259-20.046-0.6445-23.584-0.1187-3.5377-0.4088-13.762-0.6426-22.725-0.6773-25.97-0.822-31.216-1.1074-40.201-0.1563-4.9007-0.1082-8.4707 0.1133-8.4707 0.2113 0 3.9505 1.6583 8.3066 3.6856 4.3563 2.0272 10.717 4.9443 14.137 6.4824 3.4198 1.5383 7.6668 3.4679 9.4356 4.2871 1.7689 0.81929 5.3373 2.4585 7.9316 3.6426 2.5944 1.184 5.9182 2.7104 7.3848 3.3926 2.6938 1.253 30.446 13.896 44.287 20.176 4.1274 1.8724 8.3725 3.8063 9.4336 4.2969 2.6837 1.2404 23.736 10.765 28.945 13.096 2.3587 1.0552 8.6292 3.9032 13.936 6.3301 5.3067 2.4268 15.246 6.928 22.086 10 6.8395 3.072 14.095 6.349 16.123 7.2852 4.9593 2.2896 5.5293 2.4545 5.5293 1.5938 0-0.39845-0.6841-0.97554-1.6074-1.3555-0.8843-0.36397-4.3076-1.8792-7.6094-3.3652-8.3511-3.7587-36.804-16.619-39.666-17.93-3.156-1.445-28.597-12.954-36.664-16.586-3.5377-1.5931-10.965-4.9635-16.508-7.4902-5.5423-2.5267-12.007-5.4707-14.365-6.541-2.3585-1.0704-7.5687-3.4488-11.578-5.2832-4.0094-1.8344-10.573-4.8242-14.582-6.6445-4.0094-1.8203-8.7351-3.9834-10.504-4.8066-5.6412-2.6256-18.838-8.6804-26.586-12.197-6.9437-3.1516-9.5892-4.6426-8.2363-4.6426 0.5101 0 3.1095 1.1545 15.955 7.082 3.4198 1.5781 9.4966 4.3698 13.506 6.2031s8.5851 3.9301 10.168 4.6602c1.583 0.73005 9.4954 4.3442 17.582 8.0293 8.0869 3.6851 16.314 7.4524 18.283 8.373s3.647 1.6738 3.7285 1.6738c0.082 0 1.8462 0.78925 3.9239 1.7539 3.277 1.5215 10.541 4.8658 21.357 9.832 1.6511 0.75797 4.6418 2.1065 6.6465 2.9961 5.2674 2.3374 17.763 7.9947 20.982 9.5 3.3378 1.5609 31.318 14.214 53.557 24.221 1.9964 0.89827 2.2675 0.93558 2.1446 0.29883-0.096-0.49768-4.7621-2.8215-14.721-7.334-8.0187-3.6336-22.876-10.377-33.018-14.986s-20.077-9.104-22.082-9.9902c-2.0047-0.88618-4.9976-2.2344-6.6485-2.9941-1.651-0.75981-7.2489-3.3115-12.438-5.6699-8.6311-3.9231-15.12-6.8882-22.512-10.289-1.533-0.70536-4.7157-2.1469-7.0742-3.2031-2.3584-1.0562-5.5412-2.5099-7.0742-3.2305-2.5803-1.2127-9.06-4.1797-15.223-6.9707-1.4151-0.64091-4.0222-1.8443-5.791-2.6738-1.7689-0.82949-6.3995-2.9472-10.291-4.707-3.8914-1.7598-8.0415-3.6612-9.2207-4.2246-4.3998-2.1021-15.526-7.1768-18.01-8.2148-1.4151-0.59142-2.7958-1.2618-3.0703-1.4863-0.6321-0.51659-0.9259-4.7843-1.2168-17.73-0.4269-19.007-0.6578-28.222-1.0664-42.236-0.5106-17.514-0.8072-29.076-1.084-42.453-0.1201-5.7782-0.324-14.125-0.457-18.547-0.1329-4.4221-0.1702-8.0391-0.08-8.0391 0.091 0 0.9287 0.36296 1.8574 0.80859 3.7621 1.8051 34.9 15.935 49.93 22.656 3.4198 1.5294 9.4965 4.2831 13.506 6.1191 6.7572 3.0944 12.405 5.6492 33.875 15.314 4.4812 2.0173 9.2126 4.149 10.51 4.7363 30.189 13.669 79.397 35.769 80.754 36.268 0.5817 0.21355 0.7436 0.10388 0.6407-0.42968-0.1372-0.71431-4.4152-2.706-35.943-16.715-7.1933-3.1962-14.332-6.3908-15.865-7.0976-1.533-0.70689-4.7158-2.1521-7.0742-3.2129-2.3585-1.0608-5.3493-2.412-6.6465-3.0058-1.2971-0.59386-4.001-1.8083-6.0059-2.6973-2.0047-0.88897-4.7047-2.1034-6.0019-2.6992-2.9974-1.3767-15.078-6.842-23.154-10.473-3.4198-1.5372-7.4729-3.3694-9.0059-4.0723s-3.5605-1.5788-4.5039-1.9473c-0.9434-0.36848-1.9087-0.81137-2.1445-0.98242-0.3349-0.24288-40.968-18.791-49.955-22.803-1.8815-0.83998-9.6094-4.3701-16.51-7.541-6.0827-2.7951-9.0199-4.3182-8.3613-4.3379 0.3538-0.01 2.4763 0.81698 4.7168 1.8398 3.3736 1.5401 38.954 17.628 46.135 20.859 1.1579 0.52114 3.0727 1.3834 4.2519 1.916 1.1793 0.53263 6.0968 2.7529 10.932 4.9336 22.376 10.092 27.012 12.19 29.949 13.553 1.731 0.80335 3.2416 1.4609 3.3574 1.4609s1.5936 0.66134 3.2851 1.4688 5.003 2.3262 7.3614 3.377c15.2 6.7717 31.363 14.012 35.807 16.039 1.2972 0.59185 6.0248 2.708 10.506 4.7012 4.4811 1.9932 8.9199 3.9763 9.8633 4.4082 14.574 6.6727 24.89 11.079 25.025 10.688 0.086-0.24631-0.015-0.60857-0.2128-0.80664-0.2033-0.19807-7.9927-3.7636-17.309-7.9219-9.316-4.1583-17.517-7.8203-18.225-8.1367-0.7074-0.31646-5.1462-2.314-9.8632-4.4414-13.945-6.2895-51.383-23.118-58.104-26.117-3.4196-1.5263-8.0241-3.6242-10.232-4.6621-2.2084-1.0378-4.08-1.8867-4.1601-1.8867-0.079 0-5.8937-2.6301-12.922-5.8457-12.65-5.7876-22.92-10.453-31.217-14.18-2.3584-1.0592-5.2544-2.3768-6.4336-2.9258-1.1793-0.54896-5.4242-2.473-9.4336-4.2754-12.348-5.5506-13.077-5.9057-13.111-6.3926-0.019-0.25991-0.087-0.76342-0.1563-1.1172-0.069-0.35377-0.2521-6.6243-0.4082-13.936-0.1561-7.3112-0.3783-15.801-0.4941-18.867-0.1157-3.066-0.3963-12.523-0.625-21.014-0.2287-8.4905-0.5182-18.909-0.6426-23.154-0.8367-28.674-1.1008-43.235-0.789-43.529 0.198-0.18705 0.747-0.41105 1.2187-0.4961 1.4376-0.25934 1.0697-1.7482-0.5352-2.1641-0.7772-0.20141-1.3945-0.63834-1.3945-0.99023 0-0.8493 0.341-0.80502 2.8145 0.38476 5.6043 2.6956 27.438 12.457 55.934 25.008 2.9481 1.2984 6.7655 3.0185 8.4843 3.8203 1.7188 0.80183 3.3665 1.457 3.6641 1.457s0.7251 0.17243 0.9492 0.38281c0.224 0.21037 7.4541 3.5156 16.062 7.3438 8.6084 3.8281 18.351 8.174 21.652 9.6582 3.3019 1.4841 11.117 4.9582 17.367 7.7207s12.52 5.5472 13.936 6.1894c3.5906 1.6296 28.873 12.775 43.312 19.094 0.7076 0.3096 3.2647 1.4485 5.6836 2.5312 2.419 1.0827 4.5899 1.9688 4.8242 1.9688 0.9283 0 0.3547-1.334-0.7539-1.7539-1.3002-0.49241-13.29-5.7589-17.689-7.7695-1.5331-0.70055-3.9443-1.7593-5.3594-2.3535-1.4151-0.59424-4.4059-1.9071-6.6465-2.918-4.9534-2.2349-27.414-12.141-34.518-15.225-2.8302-1.2285-7.8485-3.4497-11.15-4.9336-6.7342-3.0266-30.434-13.506-35.377-15.645-1.7688-0.76509-4.6629-2.0638-6.4317-2.8867-1.7689-0.82289-4.0852-1.8449-5.1465-2.2676s-3.4726-1.4841-5.3593-2.3613c-1.8868-0.87722-5.0733-2.3235-7.0782-3.2109-2.0047-0.88747-4.7047-2.0954-6.0019-2.6836-1.2971-0.5882-3.2258-1.4511-4.2871-1.9219-6.5408-2.9015-30.126-13.442-31.73-14.18-1.0614-0.48782-3.8621-1.7355-6.2207-2.7734-11.604-5.1066-10.914-4.5795-10.928-8.3945 0-1.7748 0.046-1.8542 1.0527-1.6016 0.8901 0.22336 4.9247 1.9859 13.09 5.7168 4.8204 2.2025 16.844 7.5676 24.445 10.908 4.8348 2.1248 9.6593 4.254 10.721 4.7344 1.0613 0.48031 3.4725 1.5495 5.3593 2.373 6.2601 2.7325 7.2614 3.1755 10.934 4.8379 2.0049 0.9075 10.4 4.6259 18.654 8.2656 8.2546 3.6397 21.085 9.3218 28.514 12.625 7.4292 3.3032 16.692 7.404 20.584 9.1133 3.8914 1.7093 9.9721 4.4172 13.51 6.0156 6.2353 2.8174 10.89 4.8721 29.371 12.959 4.8347 2.1157 10.978 4.8043 13.652 5.9766 2.674 1.1722 4.966 2.0287 5.0918 1.9023 0.5892-0.58927-0.4462-1.4418-3.1484-2.5918-1.6198-0.68923-4.1995-1.8232-5.7325-2.5176s-4.5239-2.0165-6.6465-2.9394c-2.1227-0.92297-4.2431-1.8587-4.7148-2.082-1.039-0.49201-24.86-10.91-29.375-12.848-1.7689-0.75891-3.5834-1.5785-4.0312-1.8164-0.4478-0.23782-2.7622-1.2582-5.1446-2.2695-3.5226-1.4954-17.615-7.7404-23.201-10.283-0.7076-0.32204-4.371-1.9315-8.1446-3.5762-6.6607-2.903-44.815-19.838-48.644-21.59-1.0466-0.47894-7.7998-3.4712-15.008-6.6504-7.2081-3.1792-14.555-6.4322-16.324-7.2305-1.7687-0.79832-7.5566-3.4118-12.863-5.8086s-10.178-4.5469-10.826-4.7773c-1.1392-0.40484-1.1797-0.52357-1.1797-3.5254 0-1.7088-0.127-5.4839-0.2832-8.3887-0.206-3.83-0.1544-5.2 0.1914-4.9863 0.5583 0.34502 1.3772-1.0045 1.377-2.2676 2e-4 -0.86581-0.7902-0.97364-2.9825-0.41016-0.3786 0.0973-0.6263-0.16068-0.6406-0.65624-0.014-0.46081-0.3705-0.86808-0.8261-0.93555-0.4436-0.0658-1.0049-0.31745-1.2461-0.5586-0.2934-0.29368-0.7021-0.29497-1.2364-0.01-0.6033 0.32286-0.8609 0.2637-1.0527-0.23633-0.1401-0.36394-0.4262-0.66016-0.6367-0.66016-0.6334 0-0.4317 2.0005 0.2597 2.5742 1.1523 0.95647 0.6864 1.2848-1.8222 1.2891-1.3561 1e-3 -4.0582 0.12393-6.0039 0.27539l-3.5371 0.27734v4.6543c0 2.5594-0.096 4.6524-0.2168 4.6523-0.3821 0-9.8493-4.3323-10.137-4.6387-0.1518-0.16179-0.4084-5.889-0.5722-12.729-0.1639-6.8396-0.3718-12.508-0.459-12.596-0.087-0.0872-2.0708-0.12623-4.4082-0.0859l-4.2481 0.0723-0.051-3.7305c-0.029-2.0519-0.1366-3.8165-0.2422-3.9219-0.085-0.0853-0.1661-0.1371-0.2403-0.15625-0.5191-0.13403-0.7597 1.3299-0.6484 4.0781l0.1465 3.5938-3.6543 0.30469c-5.5931 0.4659-5.2877-0.35007-4.9805 13.271l0.2559 11.385-3.1738 1.4394c-3.3396 1.5158-13.313 5.8174-30.834 13.293-5.7782 2.4654-17.069 7.317-25.088 10.781-8.0188 3.4643-17.183 7.3637-20.367 8.666-3.1837 1.3024-8.7799 3.6847-12.436 5.2949-3.6556 1.6102-9.9261 4.3071-13.936 5.9941-4.0093 1.687-7.8687 3.3282-8.5762 3.6465-0.7075 0.31826-2.5412 1.0938-4.0742 1.7227-1.533 0.62877-3.5769 1.4987-4.5391 1.9336-0.9624 0.43495-2.7778 1.1991-4.0371 1.6953-1.2591 0.49631-3.0764 1.2531-4.039 1.6856-0.9624 0.43241-7.5399 3.2245-14.615 6.2031-7.0754 2.9787-13.443 5.6932-14.15 6.0332s-3.8903 1.7125-7.0743 3.0469c-3.1839 1.3344-6.5985 2.7878-7.5879 3.2324-0.9894 0.44454-1.9146 0.80859-2.0546 0.80859-0.1401 0-1.7419 0.66591-3.5606 1.4785-2.9644 1.3244-6.4533 2.7991-18.531 7.8379-4.5473 1.8972-7.4665 3.1247-15.865 6.6699-15.82 6.6781-23.53 9.8991-26.56 11.1-1.7822 0.70599-3.8216 1.5552-4.5293 1.8828-0.7075 0.32765-4.9525 2.1177-9.4336 3.9824-17.284 7.1923-40.413 16.867-42.666 17.846-1.2972 0.56354-8.1473 3.4315-15.223 6.373s-18.267 7.6104-24.871 10.375c-6.6037 2.7647-13.066 5.4607-14.363 5.9883-1.2971 0.52756-6.4124 2.6453-11.365 4.707-4.9528 2.0617-11.805 4.9062-15.225 6.3223-12.877 5.332-21.805 9.0372-26.371 10.943-2.5943 1.083-6.7404 2.7842-9.2168 3.7812-4.6562 1.8747-13.45 5.524-21.656 8.9883-2.5944 1.0952-5.3914 2.245-6.2168 2.5527-0.8255 0.3078-4.1091 1.6653-7.293 3.0195-3.1839 1.3543-7.8146 3.2892-10.291 4.2969-12.698 5.1665-16.853 6.8677-25.514 10.455-5.1886 2.1492-9.8213 4.0953-10.293 4.3223-0.4717 0.22693-1.8207 0.77721-3 1.2227-2.3411 0.88434-15.155 6.0907-41.379 16.816-9.3159 3.8102-18.965 7.754-21.441 8.7617-17.243 7.0166-21.327 8.6914-22.512 9.2285-0.4717 0.21381-3.3676 1.3866-6.4336 2.6055-5.1357 2.0416-10.34 4.1825-12.438 5.1191-0.8616 0.38473-11.982 4.8696-32.465 13.094-6.0643 2.4348-11.662 4.7091-12.438 5.0527-0.7752 0.34357-3.2419 1.3381-5.4825 2.209-2.2405 0.87083-4.6518 1.8399-5.3593 2.1543-0.7076 0.31441-8.1353 3.3088-16.508 6.6562s-18.312 7.3384-22.086 8.8672c-3.7736 1.5288-16.507 6.6286-28.299 11.334s-21.827 8.7314-22.299 8.9473c-0.47169 0.21578-9.4462 3.7972-19.941 7.959-10.495 4.1618-27.477 10.903-37.736 14.98-50.792 20.187-50.019 19.884-63.891 25.293-8.7698 3.4197-16.888 6.6124-33.762 13.283-8.0724 3.1914-16.756 6.5908-19.297 7.5547-2.5407 0.96389-5.1968 2.0047-5.9043 2.3125-0.70754 0.30785-5.629 2.2481-10.936 4.3105-5.3065 2.0625-13.988 5.4387-19.295 7.5039-34.463 13.412-59.3 23.062-64.107 24.908-3.066 1.177-6.7314 2.6038-8.1465 3.1699s-4.406 1.7299-6.6465 2.5879c-3.9376 1.5078-7.8358 3.0294-10.506 4.1016-0.70754 0.28409-1.481 0.56887-1.7168 0.6289-0.31865 0.0811-16.709 6.3789-20.205 7.7637-0.34194 0.13551-0.55786-3.6366-0.76172-13.236-0.1568-7.3832-0.3718-16.219-0.47657-19.639-0.34661-11.307-0.80059-28.728-2.3516-90.051-0.24159-9.5517-0.62632-24.702-0.85351-33.664-0.22722-8.9622-0.5188-22.275-0.64844-29.586-0.12965-7.3111-0.33088-15.32-0.44922-17.797-0.11835-2.4764-0.50198-17.53-0.85352-33.449-0.72606-32.881-0.9607-42.123-1.2598-49.74-0.11578-2.9481-0.32444-10.86-0.46094-17.582-0.13651-6.7216-0.31696-14.054-0.4043-16.295-0.0873-2.2405-0.27466-9.2825-0.41601-15.65-0.14137-6.3679-0.34062-12.929-0.44141-14.58-0.10077-1.6508-0.29451-10.046-0.42773-18.654-0.13321-8.6084-0.32915-17.486-0.4375-19.727-0.58267-12.052-0.7229-38.226-0.22852-42.666 0.69388-6.2318 2.0846-11.663 4.6348-17.572 12.435-30.547 33.695-56.831 47.482-83.93 2.054-6.0386-25.336-8.9723-32.668-9.7207l-0.73633-10.273c3.3742-0.53708 25.231-3.1149 25.904-9.291 6.9e-4 -4.9475-18.012-9.1279-42.768-10.502v-8.5332c20.801-1.3374 34.711-4.9067 34.732-8.9121-0.0213-4.5294-17.72-8.4211-42.219-9.2832-2.0047-29.692-1.6163-57.273-2.8203-80.805-1.5179-5.1786-4.1777-14.467-4.1777-14.467s-2e-3 6.875-2e-3 0c-0.44643-7.4107 0-73.963 0-73.963 0-2.6434-3.0234-2.5898-3.0234-2.5898zm1107 305.32c-0.2358 0-0.4297 0.37182-0.4297 0.82422s-0.1017 1.094-0.2305 1.4277c-0.1387 0.36166 0.032 0.60742 0.4258 0.60742 0.4639 0 0.6621-0.4273 0.6621-1.4297 0-0.78614-0.1918-1.4297-0.4277-1.4297zm-4.5469 0.19532c-0.052-0.0223-0.1098-0.0181-0.1699 0.0195-0.2359 0.14575-0.4297 0.63995-0.4297 1.0976 0 0.45781 0.1938 0.83204 0.4297 0.83204 0.2358 0 0.4297-0.49415 0.4297-1.0977 0-0.46679-0.1044-0.78448-0.2598-0.85156zm0.6504 2.4316c-0.1489-6e-3 -0.3179 0.0219-0.4727 0.084-0.3419 0.13694-0.2398 0.23527 0.2598 0.25586 0.4527 0.0186 0.7054-0.0802 0.5625-0.22265-0.072-0.0712-0.2005-0.11105-0.3496-0.11719zm31.383 16.197c-0.033-0.0143-0.069-0.0105-0.1055 4e-3 -0.043 0.0169-0.089 0.0491-0.1406 0.0996-0.3747 0.37496-0.6951 4.2799-0.4219 5.1406 0.1486 0.4683 0.4927 0.77537 0.7676 0.6836 0.3329-0.1112 0.4517-1.0863 0.3516-2.918-0.1129-2.069-0.2232-2.9108-0.4512-3.0098zm-2.3516 2.8066c-0.1258-0.03-0.2418 0.32855-0.3515 1.0762-0.133 0.90396-0.014 1.3066 0.3847 1.3066 0.3893 0 0.5124-0.36725 0.375-1.125-0.1465-0.809-0.2825-1.2278-0.4082-1.2578zm-36.904 10.672c0.1525-0.02 0.2722-0.0175 0.3398 0.01 0.2719 0.10607-0.1464 0.42763-0.9257 0.71485-1.7843 0.65767-1.8116 2.2749-0.041 2.4805l1.1152 0.1289 0.2793 6.4766c0.1547 3.563 0.2812 9.6988 0.2812 13.633v7.1523l-1.1816 0.55078c-0.6486 0.30266-2.9895 1.3101-5.2031 2.2383-2.2136 0.92825-4.8168 2.0469-5.7871 2.4863-1.4787 0.66959-22.092 9.4252-41.43 17.598-8.6559 3.6581-20.327 8.6282-21.656 9.2227-0.7075 0.31642-4.3749 1.8543-8.1484 3.418-11 4.5583-30.076 12.597-32.588 13.732-0.7076 0.31985-4.3748 1.8676-8.1484 3.4394-15.316 6.3796-19.687 8.2143-28.301 11.881-4.9528 2.1082-10.454 4.411-12.223 5.1152-1.7689 0.70416-3.7944 1.5454-4.5019 1.8711-0.7076 0.32577-7.7496 3.2751-15.65 6.5547-17.123 7.1075-22.65 9.4165-23.801 9.9434-0.4716 0.21598-6.2596 2.6409-12.863 5.3867-6.6037 2.7458-16.156 6.7313-21.227 8.8574-5.0707 2.126-12.595 5.2646-16.723 6.9746-4.1273 1.71-11.46 4.7539-16.295 6.7637-18.823 7.8243-32.243 13.384-39.024 16.17-3.8914 1.5989-11.61 4.7859-17.152 7.082s-11.136 4.6094-12.434 5.1426c-1.2972 0.53319-5.2533 2.1695-8.791 3.6348-3.5377 1.4652-9.0387 3.7364-12.223 5.0469-13.04 5.3671-15.932 6.5632-22.082 9.1191-3.5377 1.4704-8.9418 3.6885-12.008 4.9297-3.066 1.2411-7.9875 3.269-10.936 4.5058-2.9479 1.2369-7.8656 3.2655-10.932 4.5098-3.066 1.2443-7.7975 3.1709-10.51 4.2812-2.7121 1.1104-8.5001 3.465-12.863 5.2344-15.375 6.235-19.402 7.8725-27.352 11.119-4.4145 1.8029-12.174 4.9658-17.244 7.0273-5.0707 2.0615-14.621 5.9695-21.225 8.6836-6.6037 2.7141-16.156 6.5995-21.226 8.6348s-9.6065 3.8795-10.078 4.0996c-0.4716 0.2202-5.6819 2.3261-11.578 4.6777-5.8962 2.3517-16.509 6.6142-23.584 9.4746s-30.714 12.35-52.529 21.086c-21.816 8.7357-40.726 16.328-42.023 16.873-1.2971 0.54536-3.7104 1.5092-5.3613 2.1406-1.651 0.63138-3.5796 1.4-4.2871 1.707-0.70754 0.30707-2.4443 0.99431-3.8594 1.5293-1.4151 0.53494-3.3818 1.3284-4.3711 1.7637-0.98955 0.43529-1.9016 0.79297-2.0273 0.79297-0.1255 0-9.8337 3.8234-21.572 8.498-11.739 4.6746-25.395 10.1-30.348 12.053-9.222 3.6369-32.427 12.847-34.736 13.789-0.70742 0.28851-1.477 0.57121-1.7129 0.62696-0.23584 0.0557-5.3492 2.0554-11.363 4.4453-6.0141 2.3899-12.382 4.9102-14.15 5.5977-1.7688 0.68752-6.4965 2.53-10.506 4.0957s-8.9309 3.485-10.936 4.2656c-2.0047 0.78061-7.3119 2.8698-11.793 4.6426s-14.708 5.7683-22.727 8.8789c-8.0188 3.1106-17.282 6.7172-20.584 8.0156-3.3018 1.2984-10.635 4.1538-16.295 6.3457-10.12 3.9188-18.08 7.0208-23.154 9.0176-1.4151 0.5569-6.3365 2.4525-10.936 4.2129-8.1018 3.1012-27.141 10.45-32.377 12.498-1.415 0.55348-7.9744 3.0689-14.578 5.5898-6.6037 2.521-14.902 5.7083-18.439 7.0801-10.939 4.2414-44.782 17.212-58.564 22.447-7.2109 2.7391-13.241 4.9805-13.4 4.9805-0.15932 0-0.31659-1.8782-0.34961-4.1777-0.0329-2.2995-0.0919-4.9531-0.13086-5.8965-0.0392-0.94339-0.13737-5.0698-0.21875-9.168-0.12007-6.0548-0.0345-7.512 0.45312-7.7812 0.66167-0.36526 10.435-4.1939 21.398-8.3809 3.8915-1.4861 9.8712-3.7943 13.291-5.1289s7.1822-2.774 8.3613-3.2012c1.8902-0.68472 12.718-4.88 34.521-13.373 3.6556-1.424 9.2516-3.6002 12.436-4.8359 3.1839-1.2358 11.577-4.5154 18.652-7.2891 7.0753-2.7737 18.267-7.149 24.871-9.7227 6.6037-2.5736 12.394-4.8517 12.865-5.0644 0.47169-0.21278 3.3656-1.3602 6.4316-2.5488 12.746-4.941 26.643-10.384 27.443-10.748 0.4717-0.21433 3.0768-1.2504 5.7891-2.3027 8.7463-3.3935 15.724-6.1373 33.875-13.316 46.554-18.413 53.614-21.221 55.168-21.941 0.74328-0.34455 1.4778-0.625 1.6309-0.625 0.269 0 26.143-10.238 28.752-11.377 0.70754-0.30879 3.1208-1.2675 5.3613-2.1328 2.2405-0.86539 4.6518-1.828 5.3594-2.1387 0.70754-0.31063 3.5046-1.4258 6.2168-2.4766s13.904-5.5274 24.871-9.9512c40.034-16.149 53.041-21.382 57.031-22.943 3.9742-1.5553 37.336-15.014 49.742-20.066 5.185-2.1116 13.543-5.5012 39.881-16.178 1.2971-0.52581 7.8565-3.1858 14.578-5.9082 19.465-7.8837 69.418-28.304 75.258-30.766 2.4929-1.0507 33.246-13.665 45.455-18.645 3.8715-1.5791 26.614-10.945 30.228-12.449 1.2972-0.5397 4.0012-1.6526 6.0059-2.4727 2.0047-0.82019 6.7304-2.7919 10.504-4.3789 3.7735-1.5872 9.0807-3.8025 11.793-4.9238 2.7122-1.1213 7.151-2.9546 9.8632-4.0762 2.7123-1.1216 6.7635-2.8102 9.004-3.75 2.2405-0.93978 5.6172-2.3358 7.5039-3.1016 1.8867-0.76573 5.8429-2.4041 8.791-3.6426 2.9481-1.2384 7.4838-3.1193 10.078-4.1816 9.891-4.0502 17.054-7.0294 26.586-11.053 5.4245-2.2896 11.408-4.797 13.295-5.5703 5.8574-2.4006 38.034-15.935 40.736-17.135 0.7076-0.31423 7.8464-3.3067 15.865-6.6523 8.0188-3.3457 15.834-6.6348 17.367-7.3047 1.533-0.66994 7.0321-2.9907 12.221-5.1582 5.1886-2.1675 11.556-4.8638 14.15-5.9942 2.5943-1.1303 7.9984-3.4375 12.008-5.125 4.0094-1.6874 7.8687-3.3244 8.5762-3.6387 0.7075-0.31428 5.0494-2.1556 9.6484-4.0918 15.615-6.5741 18.646-7.8498 24.656-10.377 3.3018-1.3884 6.3878-2.7046 6.8593-2.9238 0.4719-0.21925 5.684-2.4433 11.58-4.9414 5.8962-2.4981 11.296-4.7984 12.004-5.1133 0.7075-0.31492 3.6034-1.5467 6.4336-2.7363 10.84-4.5564 19.791-8.3462 21.44-9.0762 3.4968-1.5487 14.787-6.4062 21.228-9.1328 16.064-6.7996 57.415-24.443 59.109-25.221 0.7682-0.35259 1.5561-0.60839 2.0176-0.66992zm19.936 0.25976c0.6281 0.0487 2.7442 0.83519 5.1074 1.9199 4.0366 1.8528 4.9604 2.4522 5.2051 3.3672 0.1637 0.6122 0.3275 3.6292 0.3633 6.7012l0.062 5.584-1.625 0.82617c-0.8947 0.45322-3.1388 1.4241-4.9844 2.1602-1.8445 0.73605-3.4164 1.3398-3.4922 1.3398-0.2883 0-0.5254-4.3109-0.6055-11.029l-0.084-6.957 1.0722-0.26953c0.5889-0.14785 1.2776-0.5166 1.5313-0.82226 0.6268-0.75531-0.5595-1.9317-1.6582-1.6445-0.8977 0.23478-1.6566-0.58268-1.0684-1.1504 0.026-0.0246 0.086-0.0323 0.1758-0.0254zm10.598 19.602c0.083 7e-3 0.1412 0.0256 0.1757 0.0605 0.2823 0.28233-0.1006 0.60142-1.1367 0.94336-1.8718 0.61742-1.9424 1.8618-0.1191 2.0723l1.1738 0.13281v3.7246c0 2.048 0.091 7.1012 0.2051 11.229 0.285 10.258 0.599 32.089 0.8652 60.25 0.1229 12.972 0.342 27.007 0.4863 31.193 0.1451 4.2058 0.095 7.5988-0.1093 7.582-0.2039-0.0166-2.3043-0.97151-4.6699-2.123l-4.3028-2.0938-0.1289-9.3359c-0.07-5.1345-0.2024-9.4541-0.291-9.5976-0.089-0.14348-0.1742-2.946-0.1914-6.2285-0.017-3.2826-0.2159-11.468-0.4395-18.189-0.4382-13.175-1.106-36.889-1.5371-54.467l-0.2715-10.939 5.0215-2.2871c2.9079-1.3256 4.6773-1.9724 5.2657-1.9258zm-30.047 12.686c0.4404 0.0129 0.5279 0.40235 0.6679 1.6895 0.1115 1.0212 0.2273 5.2321 0.2559 9.3594 0.03 4.1273 0.1459 13.776 0.2617 21.441s0.3277 25.996 0.4746 40.736l0.2696 26.801-5.9356 2.4551c-3.265 1.3493-7.9651 3.3012-10.441 4.3398-10.934 4.5862-18.242 7.6375-24.227 10.109-3.5376 1.4613-7.9764 3.3156-9.8632 4.1211-4.1622 1.7768-29.336 12.268-41.164 17.154-4.717 1.9489-12.149 5.0299-16.512 6.8457-4.3632 1.8158-9.5715 3.9708-11.576 4.7891-2.0047 0.8182-4.7086 1.9491-6.0058 2.5137-2.1991 0.95716-16.738 6.9663-35.803 14.795-4.481 1.8401-11.044 4.5354-14.582 5.9922s-9.9031 4.064-14.148 5.7891c-4.2452 1.725-9.6494 3.936-12.008 4.916s-7.183 2.9467-10.721 4.3691-16.464 6.6983-28.728 11.727c-36.054 14.782-39.166 16.055-45.24 18.49-3.1839 1.2767-6.1768 2.4998-6.6485 2.7188-0.4715 0.21891-1.8207 0.78014-3 1.2461-1.1791 0.46599-4.8485 1.9396-8.1503 3.2754-3.3019 1.3358-14.88 6.0008-25.729 10.365-10.849 4.3645-25.224 10.157-31.945 12.873-6.7215 2.7156-16.561 6.669-21.867 8.7871-5.3065 2.1182-13.415 5.354-18.014 7.1914s-10.676 4.2512-13.506 5.3633c-2.8301 1.1121-5.9179 2.3558-6.8613 2.7637-0.9434 0.40793-2.4863 1.0489-3.4297 1.4219s-5.3822 2.1308-9.8633 3.9062c-4.4811 1.7755-15.287 6.0474-24.014 9.4961-8.7262 3.4487-21.655 8.5639-28.73 11.363s-17.011 6.7219-22.082 8.7188-12.018 4.7333-15.438 6.0801c-3.4197 1.3468-10.851 4.2512-16.512 6.4551-5.6603 2.2039-14.247 5.5662-19.082 7.4707-4.8347 1.9046-14.288 5.6004-21.01 8.2129-6.7216 2.6125-14.343 5.5768-16.938 6.5879-17.932 6.9886-24.261 9.4433-61.32 23.789-8.0188 3.1041-23.169 8.9273-33.664 12.939-10.495 4.0122-20.034 7.6878-21.199 8.168-1.9395 0.79892-3.3139 0.89037-16.168 1.0918l-14.045 0.22071-0.28125-1.125c-0.15538-0.61891-0.45771-1.125-0.66797-1.125s-0.52616-0.0116-0.70312-0.0254c-0.1767-0.0143-0.42552 0.4222-0.55273 0.96679-0.21026 0.89811-0.52808 1.0087-3.4043 1.2031l-3.1699 0.21484-0.17578 3.4316c-0.32461 6.3145-0.68409 8.5685-1.3789 8.6309-0.35377 0.0317-5.394 0.082-11.199 0.10938l-10.555 0.0469-0.0762 3.752c-0.0567 2.8653-0.23485 3.8752-0.75586 4.2695-0.40997 0.30991-0.58787 0.87055-0.44922 1.4004 0.27944 1.0683 0.16002 1.1389-5.9297 3.4492-2.5834 0.98018-5.2749 2.0299-5.9824 2.334s-4.2799 1.6535-7.9355 2.998-7.3191 2.7136-8.1445 3.0449c-1.3532 0.54313-8.2002 3.122-22.943 8.6387-2.8302 1.059-5.7241 2.1772-6.4316 2.4863s-2.927 1.1551-4.9316 1.8789c-5.7031 2.0591-15.491 5.7116-22.299 8.3223-3.4197 1.3114-11.233 4.2466-17.365 6.5215-6.132 2.2748-13.61 5.0718-16.617 6.2148l-5.4687 2.0762v-3.3906c0-1.9764-0.17803-3.3945-0.42774-3.3945-0.25128 0-0.42954 1.4647-0.42969 3.5371v3.5391l-3.1094 1.1055c-1.7097 0.6093-8.5115 3.147-15.115 5.6387-6.6037 2.4916-14.611 5.4951-17.795 6.6738-3.1839 1.1787-6.1284 2.2796-6.541 2.4473-0.69038 0.28091-0.74998-0.12073-0.75-5.0996 0.1706-4.1366 0-13.59 0-13.59 0-5.3267-0.12122-6.8546-0.53516-6.7168-0.40669 0.13536-0.58734 3.3224-0.75 13.221l-0.21484 13.043-3.2148 1.1562c-3.1538 1.1341-3.3576 1.153-10.506 0.9043-5.9869-0.20824-7.7164-0.13203-9.668 0.43555-4.1093 1.1951-7.3446 4.0251-10.572 9.2461-0.0562 0.0906-0.67352-0.0695-1.373-0.35937-1.3479-0.55831-3.9023-0.25225-3.9023 0.46875 0 0.23118 0.16683 0.31761 0.37109 0.1914 0.20425-0.12622 0.71348 0.1482 1.1309 0.60938 0.60848 0.67238 0.64061 0.87659 0.16406 1.0254-0.3269 0.10206-1.251 0.39379-2.0527 0.65039-2.126 0.68057-3.2408 0.57519-4.1113-0.38672-0.42452-0.46899-1.7116-1.4548-2.8594-2.1914-1.6778-1.0764-2.3584-1.2831-3.4746-1.0566-0.76386 0.15503-2.2994 0.27224-3.4102 0.26367-2.5413-0.0193-3.5039 0.35531-7.2383 2.793l-3.0098 1.9648-3.7305-0.25977c-2.0502-0.1428-8.1992-0.36035-13.668-0.48242-9.8304-0.21934-9.9501-0.21172-10.436 0.69531-0.27087 0.50458-0.4499 1.7197-0.39844 2.7012 0.0515 0.98144 0.0667 2.0254 0.0352 2.3203-0.038 0.3545-0.82952 0.5371-2.3418 0.5371h-2.2852l-0.99218-2.9649-0.98828-2.9629-2.1914-0.1875c-3.4331-0.29163-14.074 0.0817-14.592 0.51172-0.28576 0.23717-0.87932 0.15596-1.5352-0.20703-0.58893-0.3259-1.6798-0.59692-2.4219-0.60547l-1.3516-0.0176-0.041-5.8965c-0.0437-5.8031-0.20756-12.34-0.79882-32.266-0.16444-5.5424-0.30288-12.36-0.3086-15.15l-0.0117-5.0742 3.6445-1.4043c2.0047-0.77212 8.8568-3.3829 15.225-5.8027 11.232-4.2685 13.638-5.1881 19.512-7.4492 1.533-0.59009 4.8127-1.8451 7.2891-2.7891 7.4343-2.8341 23.44-8.9931 29.16-11.223 2.9481-1.149 12.884-4.9798 22.082-8.5098 32.43-12.446 47.22-18.146 51.887-20.004 2.5943-1.033 12.916-5.0528 22.939-8.9336s20.444-7.93 23.156-8.9961c2.7122-1.066 10.721-4.194 17.797-6.9512 27.243-10.616 35.016-13.657 43.309-16.936 7.6374-3.0197 13.138-5.1831 35.592-14 3.3019-1.2965 10.055-3.9618 15.008-5.9258 4.9528-1.964 13.733-5.4395 19.512-7.7226 5.7782-2.2832 17.067-6.7562 25.086-9.9394 8.0188-3.1833 20.657-8.2015 28.086-11.15 7.4292-2.9489 21.228-8.4584 30.662-12.244 9.4339-3.7856 18.984-7.5954 21.225-8.4668 2.2406-0.87143 13.531-5.3961 25.088-10.053 11.556-4.6566 33.264-13.396 48.24-19.42 14.976-6.0241 28.291-11.389 29.588-11.924 1.2972-0.53524 4.8663-1.9732 7.9317-3.1934 3.0656-1.2201 6.1534-2.4811 6.8613-2.8027 0.7081-0.32157 6.3055-2.6023 12.438-5.0703 23.759-9.5625 40.668-16.411 51.203-20.734 6.035-2.4766 14.927-6.1115 19.762-8.0781 4.8348-1.9666 11.107-4.5323 13.938-5.6992 2.8301-1.1669 9.971-4.0903 15.867-6.4961 5.8961-2.4058 13.903-5.6937 17.795-7.3066 3.8914-1.613 12.864-5.2873 19.939-8.168 7.0754-2.8807 16.82-6.8761 21.654-8.877 4.8349-2.0009 12.652-5.2367 17.369-7.1894 4.7169-1.9528 10.987-4.5449 13.936-5.7598 2.9481-1.215 5.9389-2.4693 6.6465-2.7891 0.7075-0.31972 3.5065-1.485 6.2187-2.5898 2.7123-1.1048 5.9921-2.4646 7.2891-3.0234 3.1612-1.3618 22.602-9.4078 26.373-10.914 1.6509-0.65956 4.0622-1.6719 5.3594-2.252 1.2972-0.58014 2.7148-1.1804 3.1504-1.334 1.3785-0.48618 37.768-15.602 49.164-20.422 6.0141-2.5435 16.818-7.0829 24.012-10.088 7.1933-3.005 13.854-5.8089 14.797-6.2305 0.9434-0.42146 3.2577-1.3773 5.1445-2.125 3.8039-1.5074 8.0363-3.3191 12.144-5.1973 1.4904-0.68143 2.7942-1.2402 2.8985-1.2402 0.2337 0 10.032-4.1124 25.266-10.604 6.3679-2.7134 14.569-6.1829 18.225-7.7129 9.2105-3.8549 13.23-5.5516 21.654-9.1426 11.798-5.0289 15.559-6.621 21.227-8.9785 4.8215-2.0054 10.888-4.5796 42.424-18.002 5.0537-2.1509 9.7794-4.1796 10.504-4.5098 0.7246-0.33018 2.5299-1.0984 4.0117-1.709 1.4817-0.61059 3.9364-1.6784 5.4531-2.373 1.5166-0.69464 3.2251-1.3819 3.7969-1.5254 0.2401-0.0603 0.4255-0.0981 0.5723-0.0937zm3.7304 16.625c0.3538 0 0.7605 0.19385 0.9063 0.42969 0.1458 0.23585-0.025 0.42969-0.3789 0.42969-0.3537 0-0.7624-0.19384-0.9082-0.42969-0.1458-0.23584 0.027-0.42969 0.3808-0.42969zm0.7969 45.033c0.4126-4e-3 0.752 0.18603 0.752 0.42187 0 0.52298-0.049 0.52298-0.8574 0-0.5497-0.35521-0.5354-0.41615 0.1054-0.42187zm-2.3164 39.947 0.047 13.186 0.051 13.186-1.625 0.66406c-2.9971 1.2306-13.956 5.7991-27.566 11.49-7.4292 3.1066-17.175 7.1566-21.656 9s-10.558 4.3558-13.506 5.582c-2.9481 1.2263-6.3247 2.6092-7.504 3.0762-1.1793 0.46686-2.914 1.196-3.8574 1.6211-1.8267 0.82306-17.19 7.1539-26.801 11.043-3.184 1.2884-6.5606 2.6905-7.5039 3.1172-0.9434 0.42671-7.2159 2.9959-13.938 5.707-6.7217 2.7111-15.599 6.3226-19.726 8.0254-7.1133 2.9347-15.093 6.193-35.162 14.355-10.195 4.1464-24.89 10.152-28.303 11.568-1.2971 0.5385-7.3738 3.0101-13.506 5.4922-6.132 2.482-13.85 5.6138-17.152 6.957-17.228 7.0086-89.731 36.058-121.79 48.797-39.822 15.826-90.515 35.862-104.31 41.229-3.3609 1.3078-8.8599 3.4556-12.221 4.7734s-7.85 3.073-9.9726 3.9004c-2.1225 0.82739-5.9819 2.3375-8.5762 3.3555-12.515 4.9104-18.506 7.2495-35.377 13.801-10.024 3.8924-20.925 8.1354-24.227 9.4297-3.3019 1.2943-9.7662 3.7895-14.365 5.5469-4.5989 1.7574-9.2298 3.5511-10.291 3.9863-1.0613 0.43523-2.9899 1.188-4.2871 1.6719-1.2971 0.48391-7.087 2.7105-12.865 4.9473-5.7782 2.2368-15.811 6.0935-22.297 8.5684-6.4858 2.4749-16.135 6.1812-21.441 8.2383-5.3065 2.0571-14.956 5.7559-21.441 8.2188-14.386 5.4627-28.382 10.786-37.467 14.252-3.7442 1.4283-6.9773 2.5957-7.1836 2.5957s-0.37305-4.4941-0.37305-9.9883v-9.9883l-1.5898-0.10547c-0.87306-0.0588-1.8357-0.31536-2.1406-0.56836-0.30489-0.25458-1.04-0.36878-1.6309-0.25586-1.4405 0.27526-1.3688-0.316 0.10547-0.8789 0.64851-0.24764 6.582-2.5115 13.186-5.0293 11.888-4.5325 37.528-14.425 55.746-21.508 12.103-4.7054 15.84-6.1538 20.584-7.9883 2.1227-0.82067 5.5962-2.1691 7.7188-2.9961 2.1226-0.82696 13.024-5.0727 24.226-9.4355 19.96-7.7732 29.542-11.521 44.596-17.436 4.1275-1.6215 12.908-5.0654 19.512-7.6524 6.6037-2.5869 17.216-6.77 23.584-9.2969 6.3678-2.5269 18.331-7.2528 26.586-10.504 24.641-9.7051 96.526-38.38 120.93-48.238 34.349-13.877 41.38-16.716 43.309-17.467 1.1792-0.45915 2.7223-1.0856 3.4297-1.3945 0.7075-0.30901 2.6383-1.0818 4.2891-1.7168 1.6509-0.63503 3.5796-1.4157 4.2871-1.7363 1.3537-0.61351 10.679-4.3787 32.377-13.072 7.1933-2.882 17.033-6.879 21.867-8.8828 4.8348-2.0038 13.424-5.5278 19.084-7.8301s15.695-6.3979 22.299-9.1016c6.6037-2.7037 12.392-5.0567 12.863-5.2266s4.0402-1.6378 7.9317-3.2656c3.8915-1.6279 13.252-5.5021 20.799-8.6074 13.7-5.6369 15.286-6.2862 26.586-10.896 3.3018-1.3471 13.145-5.4 21.871-9.0078 8.7264-3.6078 20.11-8.3016 25.299-10.428 5.1886-2.1262 12.136-5.0139 15.438-6.416 3.3018-1.4021 9.8613-4.1408 14.578-6.0879 9.6775-3.9947 21.965-9.1172 30.875-12.873 3.3019-1.3919 9.5723-4.0145 13.936-5.8262 4.3632-1.8116 9.2233-3.8294 10.797-4.4844zm20.963 0.78125c0.1718 0 2.195 0.81992 4.4981 1.8223l4.1875 1.8242-0.1036 4.9023-0.1015 4.9023-4.0762 1.6328c-2.2405 0.8972-4.0909 1.6324-4.1152 1.6367-0.024 3e-3 -0.1708-1.5875-0.3223-3.5332-0.3735-4.7975-0.3506-13.188 0.033-13.188zm8.5742 15.176c0.1885 0.18846 1.2656 56.669 1.6211 84.953 0.1243 9.9056 0.3353 22.09 0.4668 27.076 0.1329 4.9865 0.081 9.16-0.1152 9.2754-0.1952 0.11535-0.6423 0.0372-0.9961-0.17383-0.3537-0.21111-1.9472-0.96315-3.5391-1.6699-2.8161-1.2506-2.8936-1.3278-2.9179-2.8887-0.014-0.88207-0.091-2.373-0.1758-3.3164-0.083-0.94339-0.2747-7.6036-0.4239-14.797-0.1494-7.1933-0.35-14.815-0.4472-16.938-0.097-2.1226-0.288-9.2615-0.4238-15.865-0.1357-6.6037-0.3312-14.419-0.4356-17.367-0.1043-2.9481-0.2976-10.376-0.4277-16.508s-0.3366-15.03-0.461-19.771l-0.2285-8.6211 4.2012-1.7441c2.3103-0.96019 4.247-1.7003 4.3027-1.6445zm-29.576 12.449c0.3851 0.38498 0.9223 28.513 1.6308 85.367l0.2461 19.727-17.072 6.7578c-15.094 5.9735-57.32 22.821-60.168 24.008-0.5897 0.24566-2.2314 0.88403-3.6465 1.416-1.4151 0.53194-4.9855 1.9246-7.9336 3.0977-2.948 1.173-8.3483 3.3231-12.004 4.7754-3.6556 1.4524-7.9974 3.194-9.6485 3.8711-3.1609 1.2965-13.388 5.3493-33.664 13.34-6.7217 2.6489-17.237 6.794-23.369 9.2129s-17.421 6.8571-25.086 9.8633c-7.665 3.006-14.517 5.7253-15.225 6.041-0.7075 0.31573-5.5301 2.1969-10.719 4.1816-5.1887 1.9848-13.099 5.0529-17.58 6.8184-4.4811 1.7655-12.01 4.7097-16.727 6.543-4.7169 1.8331-12.143 4.7362-16.506 6.4512s-10.539 4.1169-13.723 5.3359c-3.1839 1.219-8.685 3.34-12.223 4.7168-3.5377 1.3767-10.485 4.072-15.438 5.9883-4.9527 1.9162-10.932 4.2369-13.291 5.1562-7.0824 2.7613-18.684 7.2396-21.656 8.3613-1.533 0.57851-5.5861 2.1354-9.0059 3.457s-7.5678 2.8896-9.2187 3.4863c-1.651 0.59678-3.1958 1.2322-3.4317 1.4082-0.2358 0.17598-0.9999 0.45345-1.6992 0.6211-0.6994 0.16768-2.0504 0.65575-3.0019 1.082-0.9518 0.42628-4.0449 1.6534-6.875 2.7246-6.4066 2.4249-25.796 9.8465-34.09 13.049-14.252 5.5029-18.422 7.1002-22.086 8.4668-2.1227 0.79176-7.7167 2.9159-12.434 4.7207-4.717 1.8048-10.313 3.9256-12.436 4.7129-6.1174 2.2691-17.499 6.6211-18.439 7.0508-0.4717 0.21557-1.7278 0.6869-2.7891 1.0449-1.0613 0.35801-4.7267 1.7072-8.1465 3-3.4198 1.2929-17.506 6.6194-31.303 11.838-13.797 5.2185-26.629 10.055-28.516 10.746-1.8868 0.69077-7.9674 2.9649-13.51 5.0527-5.5424 2.0878-10.118 3.7674-10.172 3.7344-0.054-0.0332-0.1137-5.4003-0.1308-11.924-0.017-6.5236-0.1656-11.939-0.3301-12.039-0.1647-0.0999-4.7376-0.31352-10.162-0.47265-6.7176-0.19713-10.001-0.45077-10.293-0.79493-0.494-0.58206-0.405-0.56953-4.9297-0.65429l-3.4316-0.0645v-2.7266c0-1.5001-0.1191-3.6032-0.2656-4.6719-0.2583-1.8852-0.3193-1.9521-2.0371-2.2344-0.974-0.16003-6.8812-0.37913-13.125-0.48633-6.5247-0.11207-11.529-0.37098-11.77-0.61132-0.6028-0.60268-5.7115-0.53343-5.916 0.0801-0.2316 0.69475-0.8466 0.74389-9.459 0.80078l-7.623 0.0508 0.08 14.869 0.084 14.869-7.2519 1.1758c-3.9885 0.64725-8.2192 1.3744-9.3985 1.6133-1.1792 0.23898-5.5211 1.0167-9.6484 1.7305s-7.9362 1.3896-8.4668 1.5039c-0.95054 0.2066-0.96484 0.26583-0.96484 8.1367v7.9219l-1.3945-0.0664c-1.8772-0.0925-3.4212-0.25642-9.9688-1.0547-3.066-0.3738-5.8166-0.6916-6.1113-0.70703-0.30374-0.0157-0.53516-0.58839-0.53516-1.3184 0-0.70865-0.27257-1.5925-0.60547-1.9648-0.92495-1.0348-1.0014-3.6847-0.13281-4.6445 0.99656-1.1009 1.0518-5.8923 0.0742-6.4394-0.53316-0.29832-0.70264-1.508-0.85156-6.1289-0.14509-4.4974-0.32794-5.8666-0.83594-6.2383-1.0236-0.749-0.87573-4.3062 0.20703-4.9824 0.7204-0.44978 0.85742-0.99949 0.85742-3.4336 0-2.2906-0.13412-2.8984-0.64258-2.8984-0.49499 0-0.64453-0.55419-0.64453-2.4004 0-2.038 0.13088-2.4305 0.85938-2.6211 0.75185-0.19644 0.85742-0.58573 0.85742-3.1309 0-2.1874-0.16025-2.9685-0.64453-3.1543-0.93538-0.35913-0.90541-4.7953 0.0351-5.1562 0.55174-0.21171 0.65146-0.8529 0.53711-3.457l-0.14258-3.1953 6.8613-2.5742c13.075-4.9065 53.716-20.42 67.539-25.781 2.9481-1.1433 10.473-4.049 16.723-6.457 6.2499-2.408 12.809-4.9386 14.578-5.623 1.7689-0.68438 4.9536-1.8867 7.0762-2.6719 2.1226-0.78516 6.5614-2.4975 9.8633-3.8047 3.3018-1.3072 10.344-4.0443 15.65-6.082 5.3064-2.0378 13.025-5.0251 17.152-6.6387 11.783-4.6063 19.695-7.6842 35.162-13.676 7.9009-3.0607 18.612-7.2337 23.801-9.2734 11.739-4.615 23.328-9.1577 37.697-14.777 6.1106-2.3897 12.961-5.0958 15.223-6.0117 2.2621-0.91594 8.0676-3.207 12.902-5.0918 4.835-1.8848 19.308-7.6075 32.162-12.721 12.854-5.1132 28-11.132 33.66-13.373 15.13-5.9896 61.111-24.378 79.008-31.598 8.5495-3.4487 22.444-9.0512 30.875-12.451 8.4316-3.4 18.032-7.2777 21.334-8.6152 3.3019-1.3375 11.914-4.8188 19.139-7.7383 7.2243-2.9196 16.197-6.5479 19.939-8.0625 3.7425-1.5145 11.435-4.6282 17.096-6.918s14.635-5.9491 19.941-8.1348c5.3065-2.1856 15.436-6.3413 22.512-9.2324 7.0754-2.8911 16.339-6.6945 20.584-8.4512 4.2455-1.7566 9.5524-3.9444 11.793-4.8652 2.2405-0.92083 8.3173-3.4377 13.506-5.5898 5.1886-2.1522 12.937-5.3319 17.219-7.0664 4.2814-1.7346 9.5887-3.9094 11.793-4.834 9.5137-3.9904 16.773-6.9933 21.373-8.8398 2.7122-1.0887 5.3194-2.1598 5.7911-2.3809 3.5441-1.6608 26.959-11.132 27.121-10.971zm2.25 20.832c0.2358 0 0.4296 0.19384 0.4296 0.42969 0 0.23584-0.1938 0.42578-0.4296 0.42578s-0.4297-0.18994-0.4297-0.42578c0-0.23585 0.1939-0.42969 0.4297-0.42969zm-0.5528 85.924c0.094 0.094 0.2081 4.8538 0.2539 10.578l0.084 10.406-13.291 5.2988c-58.047 23.138-61.457 24.493-90.051 35.752-4.7169 1.8574-14.754 5.8072-22.301 8.7793-7.5471 2.9721-15.169 5.9652-16.938 6.6504-1.7688 0.6852-8.8108 3.4535-15.65 6.1504-6.8395 2.6969-16.2 6.3608-20.799 8.1406-11.209 4.3378-37.484 14.553-42.023 16.338-2.0047 0.78818-5.4762 2.1354-7.7168 2.9941-2.2405 0.85874-5.4252 2.1128-7.0762 2.7891-3.5478 1.4534-16.386 6.4183-21.869 8.457-2.1226 0.78919-4.2451 1.6148-4.7168 1.832s-2.4992 1.0078-4.5039 1.7578c-2.0047 0.75008-5.7671 2.1954-8.3614 3.2109s-11.858 4.5901-20.584 7.9434c-8.7262 3.3533-18.083 6.9566-20.795 8.0078-2.7122 1.0512-5.8969 2.2646-7.0761 2.6953-2.3203 0.84741-9.3087 3.5205-20.154 7.7109-3.7736 1.458-11.975 4.5913-18.225 6.9648-13.086 4.9699-23.817 9.0656-30.873 11.783-2.7123 1.0446-6.1877 2.3555-7.7207 2.9102-1.533 0.55467-4.33 1.6199-6.2168 2.3691-3.7275 1.4803-3.1662 1.457-14.688 0.57813-3.2778-0.25006-3.533-0.20927-3.5059 0.53711 0.049 1.3068 0.6414 2.5229 0.9707 1.9902 0.184-0.29773 1.8942-0.46313 4.6036-0.44726 2.5232 0.0149 4.1536 0.18445 3.9296 0.4082-0.2101 0.21025-2.6827 1.2489-5.4941 2.3106s-6.852 2.5894-8.9746 3.3945c-9.9103 3.7592-13.154 4.9795-16.938 6.377-5.7113 2.1096-15.363 5.7649-17.152 6.4941-0.8255 0.3364-8.8309 3.3381-17.793 6.6699-8.9622 3.3318-19.385 7.2238-23.158 8.6504-3.7734 1.4266-8.79 3.3097-11.148 4.1856-2.3584 0.87589-10.85 4.0541-18.869 7.0606-8.0187 3.0064-16.123 6.0381-18.01 6.7383-2.8487 1.0572-4.2663 1.3082-8.3613 1.4746-2.7122 0.1102-6.3327 0.25546-8.0449 0.32422-1.7122 0.0688-3.2065 0.0315-3.3223-0.084s-0.209-3.3361-0.209-7.1562v-6.9453l1.836-0.70312c1.0101-0.38584 2.9407-0.70118 4.289-0.70118 2.4017 0 3.5894-0.82759 1.2696-0.88476-1.5301-0.0376-1.8028 0.0791 10.4-4.4219 10.628-3.9202 17.061-6.3219 23.156-8.6406 2.1226-0.80749 12.06-4.5616 22.084-8.3438s20.733-7.8301 23.799-8.9961c3.066-1.1661 8.8559-3.3634 12.865-4.8828 24.818-9.4055 41.849-15.9 43.523-16.594 1.0613-0.43992 8.2971-3.2135 16.08-6.1621 7.7828-2.9486 16.37-6.2177 19.082-7.2656 2.7122-1.0479 9.5623-3.663 15.223-5.8106 5.6603-2.1475 10.679-4.0816 11.15-4.2988 0.4716-0.21724 5.4862-2.1561 11.146-4.3086 11.466-4.36 32.938-12.628 41.811-16.1 3.1839-1.2459 11.866-4.6166 19.295-7.4922 7.4292-2.8756 15.148-5.8682 17.152-6.6484 2.0045-0.78022 10.688-4.1542 19.297-7.5 20.202-7.852 24.595-9.5623 29.805-11.604 2.3585-0.92409 9.0166-3.5315 14.795-5.7949 5.7782-2.2634 14.076-5.5202 18.44-7.2363 16.364-6.4363 35.619-14.004 42.666-16.766 4.0093-1.5712 14.719-5.8089 23.799-9.418 9.0801-3.609 21.235-8.4183 27.014-10.689 5.7782-2.2711 11.857-4.6897 13.508-5.375 1.651-0.68528 18.342-7.3545 37.092-14.818 18.75-7.4638 34.67-13.822 35.377-14.129 4.214-1.8271 16.671-6.6392 16.814-6.4961zm22.424 0.33789 3.8575 1.7832 3.8593 1.7852v5.2148l-3.8593 1.5371-3.8575 1.5352v-5.9258zm7.5704 10.371c0.1521 0.14065 0.5725 20.893 0.7929 39.299 0.1287 10.731 0.3196 22.985 0.4239 27.23 0.1044 4.2452 0.3057 18.816 0.4472 32.377s0.3313 25.379 0.4199 26.264c0.1942 1.9385 0 1.9537-3.4785 0.27734l-2.6191-1.2598-0.291-10.605c-0.1592-5.8322-0.3722-13.015-0.4766-15.963-0.1043-2.9481-0.3006-9.8001-0.4336-15.225-0.1329-5.4245-0.4217-16.616-0.6387-24.871-0.2168-8.2546-0.5007-19.35-0.6308-24.656-0.1301-5.3065-0.3375-12.185-0.459-15.285-0.3467-8.8162-0.3172-14.356 0.082-14.742 0.3464-0.3367 6.7007-2.9662 6.8614-2.8398zm-29.643 11.939c0.1716 0.17161 0.5302 17.79 0.8398 41.084 0.5122 38.55 0.666 48.347 0.9082 58.99l0.2539 11.18-3.582 1.3262c-3.1275 1.1585-12.759 4.8692-25.449 9.8047-5.0879 1.9789-14.146 5.4555-23.154 8.8867-4.0094 1.527-13.947 5.3256-22.084 8.4395-8.1367 3.1139-17.208 6.581-20.156 7.7051s-10.277 3.9241-16.291 6.2226-13.349 5.0898-16.297 6.2031c-6.5084 2.4579-40.405 15.318-54.889 20.824-5.7782 2.1966-15.619 5.9207-21.869 8.2773-6.2498 2.3567-14.23 5.3734-17.736 6.7051-3.5063 1.3317-6.4586 2.3417-6.5586 2.2422-0.099-0.0995-0.298-2.8112-0.4433-6.0254s-0.4059-5.8457-0.5801-5.8457c-0.6997 0-0.8368 1.6425-0.584 7.0195l0.2656 5.6328-10.23 3.7871c-5.626 2.0825-11.678 4.3336-13.447 5.0039l-3.2148 1.2188-0.2208-5.0059c-0.1226-2.7528-0.2749-11.951-0.3378-20.441-0.1127-15.223-0.3681-24.225-0.6954-24.553-0.092-0.092-0.4256-0.21393-0.7421-0.26953-1.4411-0.25356-2.498-0.78901-2.2735-1.1523 0.1353-0.21887 0.042-0.39649-0.207-0.39649-0.2498 0-0.4551-0.68798-0.4551-1.5273 0-0.8394 0.1809-1.415 0.4004-1.2793 0.2196 0.13565 0.5072 0.0722 0.6387-0.14062 0.2605-0.42157-1.1202-0.89821-2.6289-0.90821-0.5213-3e-3 -1.3433-0.4272-1.8243-0.94336l-0.873-0.9375v0.98242c0 0.7198-0.1826 0.91535-0.6797 0.72461-0.3731-0.14322-1.0696-0.25976-1.5508-0.25976-0.7293 0-0.7884-0.10856-0.3437-0.64453 0.4667-0.56236 0.1366-0.63701-2.627-0.60742-1.7389 0.0187-2.9174 0.13053-2.6211 0.25 1.3579 0.54746-0.2656 1.002-3.58 1.002-2.8337 0-3.6884-0.14282-3.8809-0.64453-0.1937-0.50486-1.0648-0.64063-4.0469-0.64063-3.0071 0-3.7512 0.11791-3.5761 0.57422 0.2408 0.62748-5.3872 1.1369-12.645 1.1426-2.027 1e-3 -4.9881 0.12508-6.5801 0.27539-2.8787 0.27191-2.8945 0.28107-2.8945 1.5781 0 0.73966-0.3968 1.7249-0.914 2.2754-1.1355 1.2084-0.8036 2.4946 0.5332 2.0703 0.9157-0.29061 2.955 0.50289 2.955 1.1504 0 0.19095-0.497 0.12015-1.1035-0.15625-0.7637-0.34794-1.1951-0.36365-1.3965-0.0508-0.1601 0.24849-2.7023 0.62617-5.6504 0.83593-4.4479 0.31656-5.3268 0.48969-5.1718 1.0234 0.3636 1.2546 0.3393 6.4115-0.029 6.1836-0.206-0.12736-0.3731 0.0678-0.3731 0.43554 0 0.36767 0.2054 0.66993 0.4551 0.66992 0.2506 0 0.3352 0.1958 0.1895 0.43165s-0.051 0.42578 0.2128 0.42578c0.2641 0 0.3498 0.21344 0.1895 0.47265-0.2814 0.45588-0.3484 27.236-0.08 32.223 0.073 1.3538-0.046 2.5211-0.2637 2.5938-0.2341 0.0782-0.2189 0.4713 0.039 0.9668 0.2739 0.52739 0.383 5.1068 0.293 12.377-0.09 7.2135-0.3095 11.706-0.5879 11.984-0.3078 0.30793-0.4551-1.1347-0.4551-4.6777-0.01-4.6957-0.4653-22.19-0.584-22.344-0.1854-0.23966-19.264-0.76335-24.67-0.67773-5.5041 0.0872-6.7392-0.0108-7.3574-0.57032-0.5839-0.52834-1.8301-0.67515-5.8262-0.68945-2.796-0.01-6.4127 0.12858-8.0391 0.30273-2.7671 0.2962-2.9428 0.26322-2.7304-0.49218 0.5854-2.0818 0.5808-2.0924-1.0625-2.2285-1.5113-0.12507-2.136 0.40103-1.1797 0.99219 0.2358 0.14575 0.4297 0.83374 0.4297 1.5273v1.2578h-9.0059v-4.7149h4.9317l-0.2696-15.242c-0.1485-8.3837-0.3641-15.339-0.4785-15.453-0.1143-0.11435-1.1969-0.32141-2.4082-0.46485-2.0764-0.2459-2.2031-0.33165-2.2031-1.4883 0-1.1488-0.1156-1.2301-1.8223-1.2812-1.0023-0.0302-2.3069-0.11193-2.8965-0.17968-0.5896-0.0677-2.4677-0.16806-4.1777-0.22266l-3.1113-0.0977v-2.4492h-3c-1.7153 0-3.002-0.18271-3.002-0.42774 0-0.24746 1.3501-0.42969 3.1914-0.42969 3.0893 0 4.7272-0.66047 2.8535-1.1504-0.4954-0.12964-0.9231-0.59881-0.9531-1.043-0.03-0.44421-0.077-1.049-0.1074-1.3438-0.078-0.77808-3.1497-0.93235-3.8867-0.19531-0.5492 0.54905-7.8881 1.3606-8.336 0.92188-0.2175-0.21308 0.6249-0.55449 9.3828-3.8027 4.1275-1.5307 11.846-4.4479 17.152-6.4824 10.429-3.9986 20.441-7.8188 39.234-14.969 14.148-5.3827 21.171-8.0811 28.598-10.996 2.9923-1.1746 7.9118-3.0665 10.934-4.2031 7.1343-2.6836 60.033-23.099 70.459-27.191 5.0773-1.9931 24.871-9.7049 28.303-11.027 16.127-6.2146 25.092-9.7053 40.096-15.619 6.132-2.417 15.971-6.2859 21.867-8.5957 11.684-4.5769 27.378-10.751 38.166-15.014 3.7735-1.4912 10.622-4.1935 15.221-6.0078 25.027-9.8734 35.749-14.132 39.022-15.494 2.0047-0.83421 5.1822-2.089 7.0586-2.7871 1.8762-0.69815 3.9968-1.5308 4.7149-1.8516 0.718-0.32066 7.4802-3.0257 15.027-6.0117 7.5471-2.9859 15.142-6.0077 16.875-6.7148 1.7328-0.70716 3.2144-1.2215 3.293-1.1426zm-1507.4 29.934c-0.47987 0-0.76562 0.32-0.76562 0.85743s0.28577 0.85937 0.76562 0.85937c0.47987 0 0.76758-0.32194 0.76758-0.85937s-0.28771-0.85743-0.76758-0.85743zm-14.967 0.21289c-0.0643-0.0227-0.14209-0.016-0.23438 0.0195-0.29808 0.11435-0.54101 0.6554-0.54101 1.2031 0 1.4214 0.88017 1.2355 0.99023-0.20898 0.0469-0.61451-0.0219-0.94556-0.21484-1.0137zm139.56 0.47071c-0.0478 3e-3 -0.0995 0.0161-0.1543 0.0371-0.68847 0.26423-0.81457 0.99609-0.17187 0.99609 0.23585 0 0.42968 0.48265 0.42968 1.0723s0.14892 1.0723 0.33204 1.0723c0.18363 0 0.26216-0.75861 0.17382-1.6856-0.088-0.92273-0.22619-1.3754-0.47461-1.4726-0.0414-0.0161-0.0869-0.0225-0.13476-0.0195zm-21.768 1.0527c-0.48812 6e-3 -0.44237 0.15885 0.18945 0.63672 0.91631 0.69309 2.3848 0.84863 2.3848 0.25195 0-0.39558-1.4671-0.90153-2.5742-0.88867zm-100.26 0.22852c-0.16975 0.0114-0.29141 0.20573-0.49805 0.59179-0.24069 0.44974-0.43749 0.89653-0.4375 0.99414 0 0.0975 0.57957 0.1947 1.2871 0.21485 1.5011 0.0427 1.6118-0.29354 0.43555-1.3008-0.40077-0.34316-0.61734-0.51201-0.78711-0.5zm-21.467 0.27148c-0.18583 3e-3 -0.4361 0.12056-0.72852 0.36328-0.63607 0.52783-0.62713 0.6002 0.0977 0.85938 0.51332 0.18357 0.84344 0.0666 0.9375-0.33399 0.13679-0.58259 3e-3 -0.89436-0.30664-0.88867zm5.7207 0.11524c-0.16336 0.0474-0.19922 0.29438-0.19922 0.80859 0 0.83554 0.17273 1.0033 0.85742 0.82422 0.47169-0.12336 0.85742-0.38982 0.85742-0.58984 0-0.20004-0.38573-0.56787-0.85742-0.82032-0.18718-0.10019-0.33373-0.17196-0.44922-0.20703-0.0866-0.0263-0.15453-0.0315-0.20898-0.0156zm-25.889 0.66992c0.21872 0.0386 0.38867 0.24385 0.38867 0.59765 0 0.33983-0.17889 0.72959-0.39844 0.86524-0.50982 0.31509-1.0235-0.48692-0.67383-1.0527 0.19717-0.31902 0.46487-0.44872 0.6836-0.41015zm137.75 0.83789c0.69063 0 1.2807 1.1469 0.9043 1.7559-0.33257 0.53809-2.334 0.4908-2.334-0.0547 0-0.24322 0.28626-0.55423 0.63868-0.68945 0.35247-0.13522 0.53675-0.41581 0.40625-0.62696s0.0424-0.38474 0.38476-0.38476zm-95.902 0.0801c-0.1072 0.0149-0.29583 0.18465-0.61719 0.52148-0.54963 0.57607-0.60743 0.84079-0.21484 0.98633 0.29481 0.10935 0.53711 0.47255 0.53711 0.80664 0 0.66607 1.0949 0.83653 1.4707 0.22852 0.12922-0.20913-0.0531-0.61876-0.4043-0.91016-0.35117-0.2915-0.63672-0.83942-0.63672-1.2148 0-0.29234-0.0275-0.43283-0.13476-0.41797zm53.473 0.51172c-0.0513-9.9e-4 -0.10701 0.0163-0.16601 0.0527-0.23585 0.14575-0.43164 0.55248-0.43164 0.90625s0.19579 0.52662 0.43164 0.38086c0.23584-0.14575 0.42969-0.55639 0.42969-0.91016 0-0.26532-0.10986-0.42675-0.26368-0.42968zm0.81055 0c-0.045 0.045-0.0773 0.19553-0.0879 0.44531-0.0186 0.45204 0.084 0.70501 0.22656 0.5625 0.14251-0.14251 0.15723-0.51271 0.0332-0.82227-0.0685-0.17104-0.12687-0.23062-0.17188-0.18554zm-70.227 0.61914c-0.0733-0.0761-0.12848 0.19004-0.13477 0.7207-9e-3 0.70754 0.0818 1.0462 0.19922 0.75586 0.1175-0.2903 0.12158-0.86793 0.0137-1.2852-0.0272-0.10435-0.0536-0.16606-0.0781-0.1914zm-26.43 0.93164c0.20696 0 0.61655 0.29076 0.91016 0.64453 0.44599 0.53745 0.38734 0.64258-0.37305 0.64258-0.52312 0-0.91015-0.27285-0.91015-0.64258 0-0.35377 0.16607-0.64453 0.37304-0.64453zm21.34 0.23242c0.10206 0.0272 0.21182 0.1529 0.31054 0.41016 0.15072 0.39278 0.27344 1.0867 0.27344 1.5391 0 1.182-0.72071 1.0122-0.95703-0.22461-0.18749-0.98093 0.0669-1.806 0.37305-1.7246zm-20.676 2.3887c0.17588 0.015 0.24836 0.167 0.16797 0.4082-0.1032 0.30956-0.44044 0.64876-0.75 0.75196-0.32158 0.10721-0.48416-0.0534-0.37695-0.375 0.1032-0.30956 0.44046-0.6468 0.75-0.75 0.0805-0.0267 0.15034-0.0403 0.20898-0.0352zm-18.215 2.0977c-0.48554 0-0.76686 0.19383-0.62109 0.42968 0.14576 0.23584 0.5449 0.42774 0.88476 0.42774 0.33985 0 0.61719-0.1919 0.61719-0.42774 0-0.23585-0.39524-0.42968-0.88086-0.42968zm200.4 14.572c0.88687-0.049 0.91767 0.61058 0.80664 2.9434-0.13908 2.9205-0.14639 2.9371-1.3926 2.9727-1.3574 0.0385-1.3432 0.0735-1.418-3.207-0.0432-1.8899 0.0794-2.2653 0.80664-2.4609 0.51287-0.13794 0.90163-0.23173 1.1973-0.24805zm3.125 0.58985c0.0203 0.0409 0.0393 0.16819 0.0625 0.39062 0.0935 0.8897 0.0928 2.2427-2e-3 3.0039s-0.17135 0.0318-0.16992-1.6191c1e-3 -1.2382 0.0483-1.8982 0.10938-1.7754zm-212.49 1.9902c-0.24977 0-0.45508 0.19385-0.45508 0.42969 0 0.23585 0.0854 0.42773 0.18945 0.42773s0.30928-0.19188 0.45508-0.42773c0.14574-0.23584 0.0603-0.42969-0.18945-0.42969zm212.24 5.5742c0.23584 0 0.43164 0.19188 0.43164 0.42773 0 0.23584-0.1958 0.42969-0.43164 0.42969-0.23585 0-0.42969-0.19385-0.42969-0.42969 0-0.23585 0.19384-0.42773 0.42969-0.42773zm-2.832 0.20703c0.19325-4e-3 0.35354 0.0311 0.4375 0.11524 0.12521 0.12521 0.1255 0.39079 0 0.59374-0.30016 0.48565-1.8926 0.48064-1.8926-8e-3 0-0.33041 0.87534-0.68669 1.4551-0.70117zm2.9941 3.8203c0.15627 6e-3 0.26953 0.17344 0.26953 0.44922 0 0.75321-0.25935 0.86429-0.62696 0.26953-0.13564-0.21955-0.0483-0.52181 0.19141-0.66992 0.0599-0.037 0.11386-0.0505 0.16602-0.0488zm-2.8887 0.68946c0.74894 0 0.96139 0.15724 0.71679 0.53515-0.19081 0.29481-0.34765 1.5974-0.34765 2.8945 0 2.3474-7e-3 2.3604-1.3945 2.4941l-1.3926 0.13282v-2.7695c0-2.9561 0.24406-3.2871 2.418-3.2871zm2.5605 7.9004c0.0513-0.0129 0.107-3e-3 0.16602 0.0332 0.23584 0.14576 0.43164 0.54299 0.43164 0.88281 0 0.3399-0.1958 0.61914-0.43164 0.61914-0.23585 0-0.42969-0.39917-0.42969-0.88476 0-0.36428 0.10987-0.61094 0.26367-0.65039zm-2.7988 0.46484c0.26435-0.024 0.51266 0.0612 0.61719 0.23047 0.13937 0.22556-0.14147 0.41016-0.62695 0.41016-1.0354 0-1.1403-0.238-0.25391-0.57813 0.0866-0.0332 0.17555-0.0543 0.26367-0.0625zm-0.19531 4.498c0.50181 0 0.60134 0.58152 0.5 2.8945-0.1112 2.5374-0.23465 2.9116-1.002 3.0215-1.2813 0.1834-1.4824-0.21791-1.4824-2.9394 0-2.4852 0.32737-2.9766 1.9844-2.9766zm3.3281 0.61133c0.15377 0.0394 0.26367 0.28617 0.26367 0.65039 0 0.48559-0.1958 0.88281-0.43164 0.88281-0.23585 0-0.42968-0.27731-0.42969-0.61719 0-0.33983 0.19384-0.73705 0.42969-0.88281 0.0589-0.0364 0.11668-0.0464 0.16797-0.0332zm0.0234 3.0371c0.0199-7e-3 0.038-4e-3 0.0527 0.0117 0.059 0.063 0.0781 0.31663 0.0781 0.7793 0 1.2224-0.11904 1.3811-0.5332 0.71094-0.14459-0.23384-0.0824-0.74712 0.13672-1.1387 0.12153-0.21722 0.20578-0.3411 0.26562-0.36329zm-0.35742 5.0762c0.0513 9e-3 0.107 0.03 0.16602 0.0664 0.23584 0.14576 0.43164 0.35102 0.43164 0.45508s-0.1958 0.18945-0.43164 0.18945c-0.23585 0-0.42968-0.20533-0.42969-0.45507 0-0.18729 0.10987-0.28158 0.26367-0.25586zm-2.9219 4.1738c0.47438 0.0199 0.45896 0.27342 0.25976 1.1172-0.157 0.66509-0.45281 1.3912-0.6582 1.6152-0.2054 0.22406-0.37109 0.75321-0.37109 1.1777 0 0.42441-0.30188 0.77344-0.66797 0.77344-0.53316 0-0.63908-0.44539-0.53516-2.25 0.12135-2.1075 0.20767-2.2602 1.3262-2.3887 0.27794-0.0319 0.48835-0.0516 0.64649-0.0449zm-0.70313 1.4766c-0.0427-6e-3 -0.0895 7e-3 -0.13867 0.0371-0.19654 0.1215-0.35742 0.39918-0.35742 0.62109 0 0.22196 0.16088 0.40625 0.35742 0.40625s0.35742-0.28356 0.35742-0.62695c0-0.2575-0.0906-0.42158-0.21875-0.43749zm-108.1 7.2305-0.11719 6.1367h-4e-3l-0.11719 6.1367h-10.508v-12.008h1.7168c2.0129 0 2.1638 0.2648 0.53516 0.93555-0.87052 0.35857-0.99514 0.53104-0.47461 0.65625 0.70425 0.16942 1.4191 3.3074 1.7578 7.7344 0.0226 0.29481 0.2484 0.53711 0.50391 0.53711 0.31437 5.6e-4 0.42208-1.5922 0.33203-4.9297-0.15122-5.6006-0.67352-4.9564 4.1094-5.1211zm-3.5996 0.65625c-0.4515 0.0203-0.71485 0.69506-0.71485 1.9688 0 1.0613 0.19385 1.9277 0.42969 1.9277 0.23585 0 0.43164-0.57957 0.43164-1.2871s0.14343-1.2642 0.32031-1.2363c0.83886 0.1325 1.0227-0.10396 0.53516-0.6914-0.39092-0.47102-0.73099-0.69381-1.002-0.68164zm-9.4785 0.0391c0.36776 0 0.54812 0.19188 0.40234 0.42773-0.14576 0.23584-0.44407 0.42969-0.66601 0.42969-0.22192 0-0.40625-0.19385-0.40625-0.42969 0-0.23585 0.30223-0.42773 0.66992-0.42773zm11.602 0.57422c-0.15377-0.0259-0.26367 0.0705-0.26367 0.25781 0 0.24974 0.19384 0.45314 0.42969 0.45312 0.23585 0 0.42773-0.0834 0.42773-0.1875 0-0.10405-0.19188-0.30932-0.42773-0.45507-0.0589-0.0364-0.11472-0.0599-0.16602-0.0684zm-7.9824 1.9961c-0.4717 0-0.85742 0.19579-0.85742 0.43164s0.38572 0.42578 0.85742 0.42578c0.47169 0 0.85742-0.18993 0.85742-0.42578s-0.38573-0.43164-0.85742-0.43164zm115.78 0h1.5527c1.3991 0 1.5243 0.0965 1.291 0.9668-0.14222 0.53066-0.25939 1.4455-0.26367 2.0352-6e-3 0.8933-0.22184 1.081-1.293 1.1192-1.2579 0.0447-1.2871 7.4e-4 -1.2871-2.0371zm-119.3 1.3848c0.57342-0.18967 0.57076 1.3714-4e-3 2.2852-0.1563 0.24888-0.1114 1.2122 0.0996 2.1426 0.29796 1.3144 0.23908 1.8381-0.25977 2.3379-0.57017 0.57131-0.62864 0.23791-0.51758-2.9688 0.0862-2.4873 0.29832-3.6699 0.68164-3.7969zm10.547 0.47851c-0.0513 0.01-0.1091 0.03-0.16797 0.0664-0.23586 0.14575-0.42969 0.45947-0.42969 0.69531 0 0.23585 0.19382 0.30981 0.42969 0.16406 0.23585-0.14575 0.42773-0.45946 0.42773-0.69531 0-0.17688-0.10605-0.26017-0.25976-0.23046zm1477.5 5.0703v16.451l-5.0391 1.8672c-2.7713 1.0267-7.5473 2.8324-10.613 4.0117-9.1681 3.5266-12.545 4.8169-19.297 7.3809-3.5377 1.3434-6.8173 2.6062-7.289 2.8066-0.4716 0.20043-2.9819 1.1869-5.5762 2.1914l-4.7148 1.8262-10.508 0.13672c-5.7782 0.0747-11.336 0.24455-12.354 0.37891l-1.8515 0.24609 0.1347 4.2344c0.1101 3.4706 0.019 4.2762-0.5078 4.4453-0.3537 0.11364-2.3813 0.86764-4.5039 1.6758-2.1227 0.80809-8.1992 3.1208-13.506 5.1387-5.3066 2.0179-13.025 4.956-17.152 6.5293-4.1273 1.5733-17.153 6.4912-28.945 10.93-11.792 4.4385-24.046 9.0696-27.23 10.289-16.658 6.3267-16.638 6.2842-24.014 9.0117-5.306 1.959-15.228 5.6548-22.047 8.2129-6.8177 2.5574-12.448 4.6504-12.508 4.6504-0.3371 0-0.6393-6.0611-0.5235-10.488l0.1309-5.1289 1.7168-0.61719c0.9434-0.33944 3.9294-1.4666 6.6367-2.5059 6.6897-2.5042 6.5889-2.4591 12.016-4.4961 7.2385-2.7157 25.94-9.7968 32.805-12.42 3.066-1.1716 6.8283-2.5818 8.3613-3.1348 1.533-0.55307 5.875-2.1968 9.6485-3.6523s8.5981-3.2963 10.721-4.0918c2.1226-0.79549 6.0788-2.2929 8.791-3.3281 2.7123-1.0352 9.5603-3.6388 15.221-5.7852 5.6603-2.1464 12.801-4.8596 15.867-6.0312s8.0824-3.0902 11.148-4.2617c48.412-18.498 48.805-18.647 89.088-34.195zm-1461.2 0.12695c0.0259 0.01 0.0542 0.0495 0.084 0.12305 0.11892 0.2948 0.11892 0.77745 0 1.0723-0.11894 0.2948-0.21485 0.0545-0.21485-0.53516 0-0.44222 0.0532-0.68904 0.13086-0.66015zm-11.988 0.55078c0.23626-0.0177 0.47155 0.19261 0.55859 0.64453 0.0903 0.46938-0.1189 0.75195-0.56054 0.75195-0.41198 0-0.65123-0.27945-0.57032-0.66797 0.0969-0.46573 0.33601-0.71081 0.57227-0.72851zm1497 0.53906c0.7175 3e-3 6.164 2.7308 6.164 3.0879 0 0.21418-0.8484 0.76454-1.8886 1.2246-1.0402 0.46012-2.4557 0.95163-3.1465 1.0898l-1.2559 0.25-0.092-2.8281c-0.05-1.5516 0.047-2.8188 0.2168-2.8242zm-1390.7 3.707c0.50538-1e-3 0.65623 0.18139 0.65625 0.63868-2e-5 0.42255-0.38376 0.97227-0.85156 1.2226-0.5051 0.27033-0.81142 0.82512-0.75196 1.3633 0.055 0.49845-0.14069 0.98912-0.43554 1.0938-0.38243 0.13579-0.53516-0.41897-0.53516-1.9394 0-2.0401 0.0556-2.1396 1.2871-2.3203 0.25524-0.0375 0.46239-0.0583 0.63086-0.0586zm-0.63086 0.58008c-0.23585 0-0.42968 0.1919-0.42969 0.42774 0 0.23585 0.19384 0.42968 0.42969 0.42968s0.42969-0.19383 0.42969-0.42968c0-0.23584-0.19384-0.42774-0.42969-0.42774zm1397.3 1.0176c0.029 0.0293 0.1783 8.7385 0.3301 19.352s0.3595 22.673 0.4609 26.801c0.1574 6.3938 0.7452 50.002 0.8438 62.605l0.029 4.0723-2.2676 0.13086-2.2637 0.13086 0.168-1.6328c0.093-0.89692 0.018-2.0146-0.168-2.4863-0.1856-0.47169-0.5488-9.5412-0.8086-20.154-0.7455-30.475-0.875-35.541-1.3047-51.029-0.2224-8.0188-0.5208-19.306-0.664-25.084l-0.2637-10.506 2.9297-1.1289c1.6102-0.61887 2.9499-1.0995 2.9785-1.0703zm-1518 0.69726c0.35377 0 0.64063 0.28881 0.64063 0.64258s-0.14681 0.64453-0.32813 0.64453c-0.18071 0-0.25973 1.4251-0.17382 3.166 0.0983 1.9942-0.0186 3.2703-0.31446 3.4531-0.32787 0.20261-0.4707-0.94745-0.4707-3.8086 0-3.3577 0.11965-4.0976 0.64648-4.0977zm2.0352 0h10.613v8.5762h-1.7168c-1.2387 0-1.7148-0.17805-1.7148-0.64258 0-0.35377-0.21364-0.64453-0.47461-0.64453-0.26104 0-0.36345 0.28696-0.22851 0.63867 0.20556 0.53565-0.31299 0.63437-3.1914 0.60352l-3.4356-0.0352 0.0742-4.25zm1538.9 0.0801 1.6016 0.76758c1.8843 0.90484 26.675 12.47 30.127 14.055 7.644 3.5091 13.493 6.2114 16.506 7.6191 1.8868 0.88155 4.2807 1.9667 5.3164 2.4141 1.0359 0.44738 1.8017 0.89537 1.7031 0.99414-0.099 0.0988-1.293 0.0283-2.6523-0.15625-1.3593-0.18447-2.5705-0.17242-2.6934 0.0254-0.1229 0.19767-1.5138 0.34933-3.0918 0.33789-2.2143-0.0151-3.4558-0.29115-5.4414-1.2168-1.4151-0.65968-3.5375-1.6429-4.7168-2.1816-1.1792-0.53876-4.9416-2.2764-8.3613-3.8652-9.8335-4.5687-11.946-5.5412-16.51-7.5918-11.931-5.3605-11.773-5.2399-11.787-9.207zm-1530.9 1.207c-0.23585 0-0.42578 0.30033-0.42578 0.66797 0 0.3675 0.18993 0.55006 0.42578 0.4043 0.23584-0.14575 0.42969-0.44801 0.42969-0.66992 0-0.22196-0.19385-0.40235-0.42969-0.40235zm-4.3809 0.60938c-0.028-8.1e-4 -0.0546 7e-3 -0.0801 0.0234-0.15279 0.0983-0.2539 0.49285-0.2539 1.0566 0 0.72143 0.15154 1.3105 0.33594 1.3105 0.49995 0 0.57477-2.0591 0.0859-2.3613-0.0303-0.0188-0.0599-0.0285-0.0879-0.0293zm9.2148 1.2363c0.15636-3e-3 0.27368 0.66427 0.28711 2.0742 0.0197 2.0705-0.13815 2.91-0.57618 3.0781-0.48558 0.18632-0.56006-0.19369-0.38476-1.9629 0.2052-2.0711 0.47266-3.185 0.67383-3.1894zm12.062 0.87109c0.18749-0.064 0.25586 0.19505 0.25586 0.8418 0 1.2902-0.31839 1.5093-0.71094 0.48633-0.14179-0.36963-0.0406-0.89106 0.22656-1.1582 0.0905-0.0905 0.16601-0.14859 0.22852-0.16992zm1514.2 3.7578c0.6386 0.0323 3.018 1.0645 8.8633 3.7676 4.5331 2.0963 12.485 5.7643 17.674 8.1524 5.1886 2.3881 10.69 4.9692 12.223 5.7324l2.7871 1.3867v7.504l8.3613 0.0195 8.3613 0.0176 4.1836 2.0176 4.1817 2.0195 0.2207 6.8613c0.1215 3.7736 0.3088 11.395 0.416 16.938 0.1072 5.5424 0.3251 15.093 0.4844 21.225 0.1669 6.132 0.2331 11.825 0.166 12.65-0.2006 2.4612-0.1521 5.2758 0.1152 6.6465 0.1372 0.70754 0.2656 3.385 0.2813 5.9492 0.026 4.0937 0.1097 4.5976 0.6738 4.1289 0.3708-0.30765 0.6426-0.35063 0.6426-0.0996 0 0.23949-0.2874 0.54756-0.6367 0.68164-0.3497 0.13407-0.8864 0.86182-1.1954 1.6191l-0.5605 1.3749-13.49 0.033c-21.362 0.053-21.266 0.061-21.025-1.789 0.049-0.37877-0.7123-0.53515-2.5957-0.53516-1.878 0-2.8948-0.20886-3.4473-0.70898-0.4693-0.4245-0.7851-0.51115-0.7852-0.21484 0 0.27242-0.1938 0.49609-0.4296 0.49609-0.2359 0-0.4297-0.86838-0.4297-1.9297 0-1.8834-0.031-1.9316-1.3653-1.9316h-1.3691l1.2207-1.2734c1.4755-1.5402 1.2594-1.6631-3.2012-1.8242-1.8425-0.0666-3.188-0.29926-3.1465-0.54493 0.1286-0.78361-0.8057-1.5018-1.9472-1.4961-1.9693 0.01-3.0567 0.48487-3.0567 1.332 0 0.637-0.3391 0.81933-1.6074 0.86524-0.8845 0.0322-2.2819 0.10826-3.1074 0.17187-0.8254 0.0635-1.7802 0.134-2.1192 0.15625-0.4128 0.027-0.1989 0.47699 0.6446 1.3574l1.2597 1.3125-2.1445-0.13476-2.1445-0.13282-0.2813-6.2207c-0.1545-3.4198-0.4959-15.092-0.7539-25.941-0.6662-28.018-0.875-35.804-1.1054-41.166-0.1115-2.5943-0.3215-9.9271-0.4707-16.295-0.1493-6.3678-0.3605-11.722-0.4649-11.898-0.11-0.18622-0.09-0.28792 0.1172-0.2793zm-1530.1 1.6719h1.6562l-0.13476 1.7227-0.13086 1.7246-5.2539 0.125-5.252 0.12696v-1.6367c-1e-5 -0.89896 0.14538-1.6452 0.32226-1.6602 4.5733-0.38861 6.5585-0.34759 6.2871 0.13282-0.24201 0.42867-0.18648 0.42866 0.27539 0 0.31761-0.29481 1.3207-0.53516 2.2305-0.53516zm3.9902 0.26758c0.14879 0.0199 0.1875 0.32238 0.1875 1.002 0 0.71684-0.19189 1.3047-0.42774 1.3047-0.23584 0-0.44488-0.0505-0.46289-0.10938-0.27558-0.90047-0.1835-1.4968 0.30078-1.9492 0.18454-0.17237 0.31309-0.25997 0.40235-0.24804zm-15.51 0.40625c0.26676 0.0344 0.55711 0.55953 0.71094 1.5059 0.18771 1.1548 0.0991 1.5352-0.35547 1.5352-0.74351 0-1.0654-0.75946-0.87891-2.0762 0.0805-0.56749 0.23415-0.87565 0.41016-0.94922 0.0367-0.0153 0.0752-0.0205 0.11328-0.0156zm1488.7 0.44726c0.1825 0.0237 0.2627 0.38519 0.252 1.1211-0.021 1.6905 0.4685 37.466 0.7598 55.432 0.1144 7.0754 0.3282 20.634 0.4765 30.127 0.3089 19.772 0.7004 18.157-3.9082 16.066-2.3261-1.0552-2.5604-1.2808-2.4375-2.3438 0.1229-1.0708 0.047-1.1389-0.8574-0.78907-0.546 0.21132-0.9453 0.59132-0.8867 0.84766 0.123 0.54403-1.9662-0.20907-7.0332-2.5391l-3.4981-1.6094-0.1699-2.7266c-0.094-1.4998-0.2207-6.4184-0.2793-10.93l-0.1055-8.2031 2.4317-0.30274 2.4316-0.30273-0.2597-5.2168c-0.1429-2.8688-0.3843-14.542-0.5372-25.939-0.3222-24.058 0.5114-21.219-6.3789-21.711-2.3585-0.16831-6.8942-0.57486-10.078-0.90625-9.5467-0.79377-10.209-0.86301-15.857-1.0976-1.4612-7e-3 -2.481-0.1857-2.3438-0.40821 0.1329-0.21676 0.4293-0.39258 0.6563-0.39258 0.2272 0 2.0978-0.65159 4.1562-1.4492 2.0586-0.79769 6.9269-2.6612 10.818-4.1387 3.8915-1.4775 9.1967-3.4971 11.791-4.4902 2.5943-0.99313 8.1904-3.1171 12.436-4.7207 4.2453-1.6036 7.9377-3.0843 8.205-3.2891 0.084-0.065 0.1559-0.0957 0.2168-0.0879zm-1368.6 0.0586c0.23585-0.0589 0.49056 0.51864 0.56446 1.2852 0.0755 0.78283-0.0661 1.3965-0.32227 1.3965-0.2508 0-0.48032-0.29272-0.50977-0.64649-0.0294-0.35377-0.078-0.93138-0.10742-1.2852-0.0294-0.35377 0.13913-0.69111 0.375-0.75zm-104.73 3.2969v2e-3c0.18527 0.0816 0.31641 0.84924 0.31641 1.9277 0 1.1931-0.0486 2.1466-0.10743 2.1191-0.0589-0.0273-0.47101-0.1414-0.91796-0.25586-0.60963-0.15609-0.67405-0.29429-0.25586-0.55273 0.30661-0.18949 0.53816-0.93825 0.51758-1.6641-0.0206-0.72589 0.14333-1.4305 0.36328-1.5664 0.0284-0.0176 0.0575-0.0205 0.084-0.01zm-2.2559 0.0254v3.5918l-4.6641 0.13281c-6.1372 0.17624-6.0567 0.20259-6.0566-1.8008v-1.6602l5.3613-0.13086zm-12.434 0.32813c0.29678 0.0307 0.29522 0.16946 0.0469 0.46875-0.24384 0.29378-0.33081 0.95821-0.19531 1.4766 0.13551 0.51839 0.062 0.94336-0.16211 0.94336-1.3228 0-1.4097-2.7874-0.0898-2.8867 0.16625-0.0129 0.30145-0.0118 0.40039-2e-3zm26.586 1.6016c0.23585 0 0.42579 0.27732 0.42579 0.61719 0 0.33984-0.18992 0.73901-0.42579 0.88476-0.23583 0.14576-0.42968-0.13345-0.42968-0.61914 0-0.48558 0.19385-0.88281 0.42968-0.88281zm92.744 6.084c0.0707 0.0299 0.12326 0.24632 0.19726 0.66993 0.0923 0.53065 0.0918 1.401 0 1.9316-0.15684 0.90741-0.18602 0.89333-0.50391-0.21485-0.18542-0.64802-0.18486-1.5164 0-1.9297 0.14756-0.32989 0.23585-0.48699 0.30665-0.45704zm-118.05 0.7793h10.721v20.582h-1.6777c-0.92434 0-1.794-0.24017-1.9316-0.53515-0.2-0.42881-0.29989-0.42881-0.5 0-0.16714 0.35814-1.3066 0.53515-3.4316 0.53515h-3.1797v-10.293zm16.295 0.42578c0.23585 0 0.43164 0.57957 0.43164 1.2871s-0.19579 1.2871-0.43164 1.2871-0.42967-0.57957-0.42969-1.2871c0-0.70754 0.19384-1.2871 0.42969-1.2871zm1681.1 0.18164c0.1538 0.0394 0.2618 0.28617 0.2618 0.65039 0 0.48559-0.1939 0.88477-0.4297 0.88477s-0.4297-0.27926-0.4297-0.61914c0-0.33983 0.1939-0.73706 0.4297-0.88281 0.059-0.0365 0.1162-0.0463 0.1679-0.0332zm-1665.4 0.24802c0.10406 0 0.1875 0.19384 0.1875 0.42969 0 0.23584-0.20335 0.42773-0.45312 0.42773-0.24969 0-0.33523-0.19189-0.18946-0.42773 0.14577-0.23585 0.35103-0.42969 0.45508-0.42969zm1550 0.21289c-0.06-6e-3 -0.1226 6e-3 -0.1777 0.041-0.2416 0.14909-0.1985 0.50024 0.1054 0.86718 0.6268 0.75587 0.9339 0.53366 0.5703-0.41406-0.1111-0.28867-0.3105-0.47584-0.4961-0.49414zm-1574.5 0.64453c-0.33985 0-0.61719 0.19385-0.61719 0.42969 0 0.23585 0.39525 0.42773 0.88086 0.42773 0.48555 0 0.76296-0.19188 0.61719-0.42773-0.14565-0.23584-0.541-0.42969-0.88086-0.42969zm5.8223 0.85742c0.18981 0 0.30285 0.28391 0.25196 0.63086-0.11678 0.79592-0.46834 1.1625-0.80078 0.83008-0.32909-0.32907 0.0957-1.4609 0.54882-1.4609zm-0.3457 2.334c0.20621 0.0192 0.33789 0.58216 0.33789 1.502-1e-5 0.95728-0.19384 1.7383-0.42969 1.7383-0.23584 0-0.42773-0.66108-0.42773-1.4726s0.19189-1.5964 0.42773-1.7422c0.0324-0.02 0.0623-0.0281 0.0918-0.0254zm-5.916 3.4062c-0.29238-3e-3 -0.6115 0.0232-0.93555 0.0859-0.64601 0.12509-1.7367 0.26739-2.4258 0.31641-0.68908 0.049-1.3235 0.30247-1.4102 0.5625-0.10449 0.31316 0.57017 0.43071 2.002 0.34766 1.1885-0.0689 2.1621 0.0514 2.1621 0.26953 0 0.21801 0.20336 0.39648 0.45313 0.39648 0.24959 0 0.33717-0.18994 0.19141-0.42578-0.14577-0.23585 0.13157-0.43164 0.61718-0.43164 0.48562 0 0.88086-0.17027 0.88086-0.38086 0-0.44518-0.65809-0.73106-1.5352-0.74023zm5.9277 1.1211c0.17939 0 0.32617 0.57957 0.32617 1.2871s-0.1706 1.2871-0.3789 1.2871c-0.20838 0-0.357-0.57957-0.32813-1.2871 0.0289-0.70754 0.20148-1.2871 0.38086-1.2871zm105.05 1.0469c0.20621 0.0187 0.33789 0.5802 0.33789 1.5 0 0.95728-0.19384 1.7422-0.42969 1.7422s-0.42774-0.66499-0.42774-1.4766c0-0.81153 0.19189-1.5945 0.42774-1.7402 0.0324-0.02 0.0623-0.0281 0.0918-0.0254zm1485.6 0.70117c1.696-0.0182 3.169 0.11417 3.2734 0.29101 0.1043 0.17688 0.024 0.75255-0.1758 1.2832-0.4608 1.2195-0.515 1.218-3.6074-0.28711l-2.5742-1.2539zm-901.15 0.21875c0.41934-0.0523 0.34766 0.23675 0.34766 0.80078 0 0.61153 0.30999 1.1332 0.75781 1.2754 0.59906 0.19009 0.75525 0.72705 0.76953 2.5723 7e-3 1.2828-0.0941 2.322-0.22265 2.3105-1.1508-0.10634-1.3047 0.24836-1.3047 2.9863 0 2.415 0.14486 3.0138 0.85742 3.5273 0.64079 0.46192 0.85742 1.1082 0.85742 2.5625 0 1.4818-0.2045 2.0746-0.85742 2.4824-0.47169 0.29459-0.85742 0.77553-0.85742 1.0684 0 0.41316-3.1472 0.53125-14.045 0.53125-14.526 0-17.115 0.1961-17.115 1.293 0 0.35047 0.20743 0.64027 0.46289 0.64454 0.25543 4e-3 0.18876 0.1792-0.14843 0.39257-0.64079 0.40549-0.98028 2.1719-0.41797 2.1719 0.3785 0 0.20659 4.1231-0.22852 5.4941-0.21712 0.68417-0.63969 0.93945-1.5566 0.93945-1.2433 0-1.2559 0.0179-1.2559 2.5195 0 1.5152-0.21297 2.6813-0.53515 2.9238-0.44811 0.33735-15.535 6.0217-27.768 10.463-2.9777 1.0811-6.5433 2.4222-12.434 4.6738-3.4 1.2998-17.807 6.6223-33.809 12.492-7.627 2.7978-14.011 5.179-14.189 5.2891-0.32203 0.19901-0.88868-11.953-0.88867-19.082 0-3.6803 0.0207-3.7454 1.1816-4.2012 4.0907-1.606 13.285-5.0628 16.186-6.0859 1.8868-0.6656 7.2909-2.6855 12.008-4.4863 4.7169-1.8008 10.604-4.0204 13.08-4.9316 2.4764-0.91111 8.0704-3.0039 12.434-4.6504 4.3632-1.6466 16.23-6.1133 26.371-9.9277 10.141-3.8145 19.306-7.2911 20.367-7.7227 1.0613-0.43156 5.4033-2.0789 9.6484-3.6621 4.2452-1.5832 8.3003-3.117 9.0078-3.4082 1.9676-0.80982 2.8776-1.2035 3.2969-1.2559zm-705.07 1.4648c0.48845 0 0.50857 0.12867 0.70312 4.1797 0.0708 1.474-0.0355 2.6797-0.23633 2.6797-0.20086 0-0.37895-1.3596-0.39453-3.0234-0.0156-1.664-0.1378-3.2089-0.27539-3.4316-0.13765-0.22277-0.0467-0.4043 0.20313-0.4043zm6.666 0.14844c-0.0573-9e-3 -0.12881 0.0175-0.21484 0.0703-0.27451 0.16964-0.40646 0.66195-0.29297 1.0957 0.1135 0.43379 0.0292 0.88055-0.1875 0.99218-0.21671 0.11135-0.14639 0.15327 0.1543 0.0937 0.30071-0.0595 0.61046-0.64529 0.6875-1.3008 0.0725-0.61623 0.0256-0.92519-0.14649-0.95117zm4.0801 0.2793c-0.23585 0-0.43164 0.19383-0.43164 0.42968 0 0.23584 0.19579 0.42969 0.43164 0.42969 0.23584 0 0.42578-0.19385 0.42578-0.42969 0-0.23585-0.18994-0.42968-0.42578-0.42968zm4.7617 0.61328c0.21002-0.12979 0.38281 1.1281 0.38281 2.793 0 1.7079-0.18475 3.0254-0.42383 3.0254-0.52727 0-0.48862-5.491 0.041-5.8184zm1064 3.1797c0.9058-0.0179 1.8875 7e-3 2.9648 0.0684 3.6814 0.20922 3.7581 0.2335 3.1446 1.0703-0.5511 0.75167-1.2212 0.87554-5.4297 1.0039-3.6359 0.11092-4.7253 0.0235-4.4863-0.36328 0.2398-0.38816 0.1028-0.39708-0.5664-0.0391-0.4847 0.25939-1.6157 0.45813-2.5157 0.44141l-1.6367-0.0312 1.8145-0.80664c1.9529-0.86789 3.9936-1.2902 6.7109-1.3438zm332.57 0.49415c0.2813 0 0.4511 1.4581 0.4511 3.8867 0 3.4444-0.087 3.878-0.7519 3.8106-0.4128-0.042-1.7762-0.0543-3.0313-0.0273l-2.2812 0.0508 0.2617 16.4c0.1443 9.0211 0.3393 17.873 0.4336 19.67l0.1719 3.2695-1.5821 0.65625c-0.8707 0.36093-4.4779 1.9465-8.0156 3.5234-3.5377 1.577-9.0763 4.0049-12.309 5.3945-3.2322 1.3896-7.0913 3.0906-8.5762 3.7812-1.4846 0.69065-8.1033 3.6004-14.707 6.4668-6.6037 2.8665-12.66 5.5125-13.461 5.8789-1.3303 0.60883-1.4927 0.60426-1.8516-0.0371-0.4854-0.86753-1.1972-0.49313-1.1972 0.6289 0 0.74559-0.4507 1.0315-1.3926 0.88281-0.1769-0.0279-0.3223 0.16273-0.3223 0.42383 0 0.26092-0.298 0.36122-0.6641 0.22072-0.366-0.14049-0.5708-0.1036-0.455 0.084 0.1158 0.1875-0.598 0.6383-1.586 1.002-1.3183 0.4851-3.7133 0.6803-8.9922 0.7304-6.5251 0.062-7.2157 0-7.4277-0.6855-0.9845-3.1783-2.3144-4.6114-2.3144-2.4942 0 0.57568-0.1977 1.169-0.4395 1.3184-0.241 0.1494-0.4031 0.1143-0.3574-0.0801 0.046-0.19442-0.065-1.2723-0.25-2.3926-0.3676-2.2247-1.0606-2.7356-1.1621-0.85743-0.1129 2.0993-0.1646 2.4485-0.5391 3.537-0.2028 0.5896-0.5845 1.2135-0.8476 1.3868-0.8506 0.5604-5.6979 0.3731-6.2071-0.2403-0.6053-0.7295-2.3616-13.705-2.3945-17.685-0.019-2.3477-0.2008-3.2053-0.8125-3.8184-0.6601-0.66178-0.8533-0.69393-1.1738-0.1875-0.6373 1.0068-0.6589 0.2681 0.2695 8.707 0.5735 5.2119 0.6328 7.004 0.2559 7.6074-0.2712 0.43417-0.4942 1.2599-0.4942 1.8359 0 0.57598-0.283 1.332-0.6308 1.6797-0.557 0.55707-0.557 0.65927 0 0.87297 0.3478 0.1334 0.9215 0.134 1.2753 0 0.4462-0.1713 0.6426 0.029 0.6426 0.6562 0 1.0439 1.4682 0.9438-15.865 1.0723-6.25 0.046-12.04 0.2258-12.865 0.4004-0.8359 0.1769-1.7738 0.1358-2.1172-0.094-0.3395-0.2269-4.162-0.4124-8.5039-0.4082-4.3383 0-7.945-0.06-8.0137-0.1386-0.069-0.079-0.1985-4.6715-0.2871-10.205l-0.1582-10.061 10.074-3.7695c5.5424-2.0739 11.815-4.419 13.938-5.209 15.41-5.7354 31.254-11.673 35.592-13.34 2.8301-1.0876 8.8119-3.3297 13.293-4.9844s10.077-3.756 12.436-4.668c2.3585-0.91188 5.0586-1.9322 6.002-2.2676 1.76-0.62568 12.224-4.5885 41.682-15.789 9.2451-3.5153 17.012-6.3945 17.26-6.3945zm-342.71 2.1445c0.093 0 0.1076 0.53307 0.033 1.1816-0.1319 1.1462-0.2192 1.1813-3.123 1.3066-1.6432 0.0709-2.8972 0.042-2.7871-0.0645 0.2132-0.20564 5.5913-2.4238 5.8769-2.4238zm-1066.8 2.1445h5.3613c5.3453 0 5.3594 2e-3 5.3594 1.0098 0 0.92254-0.22951 1.0357-2.6348 1.2871-1.4497 0.15159-3.8629 0.27735-5.3613 0.27735h-2.7246v-1.2871zm-144.06 0.32422c-0.17494 0.0623-0.40591 0.49724-0.64453 1.2871-0.2119 0.70141-0.11626 0.96289 0.35156 0.96289 0.43936 0 0.63091-0.41459 0.60547-1.3066-0.0199-0.69776-0.13761-1.0057-0.3125-0.94336zm156.47 0.10547c0.48561 0 0.88281 0.19384 0.88281 0.42968-1e-5 0.23585-0.27734 0.42774-0.61719 0.42774s-0.739-0.19189-0.88476-0.42774c-0.14577-0.23584 0.13359-0.42968 0.61914-0.42968zm-14.885 0.10546c0.27703 0.0404 0.58063 0.41906 0.68165 1.1055 0.091 0.61843-0.0901 0.9336-0.53711 0.9336-0.43783 0-0.67188-0.38877-0.67188-1.1094 0-0.67168 0.25033-0.97013 0.52734-0.92969zm1061.7 0.44727c0.4077 0.0612 0.3852 0.81271 0.2929 3.8086l-0.125 4-2.3593-0.13476c-3.1242-0.17907-3.9705-0.45411-3.6875-1.1914 0.1272-0.3325 0.1353-0.60351 0.019-0.60351-0.1165 0-0.395 0.48264-0.6191 1.0723l-0.4082 1.0723h-6.4688c-3.5574 0-6.3656 0.16068-6.2441 0.35742 0.1215 0.19678 1.4167 0.40219 2.8808 0.45508 2.8266 0.10205 4.7698 0.93775 3.7325 1.6074-0.3122 0.2015-2.594 0.46411-5.0704 0.58203l-4.5019 0.21484 0.1465 29.266 0.1484 29.268-1.2207-0.068c-0.6712-0.037-3.8219-0.20015-7.0059-0.3613-8.2492-0.41753-9.4159-0.96791-9.4316-4.4668 0-0.68785-0.135-1.121-0.293-0.96289-0.1581 0.15806-0.7346-6e-3 -1.2832-0.36523-0.7808-0.51163-2.2749-0.64454-6.8769-0.60938-5.293 0.0406-6.0642 0.14608-7.7637 1.0508-1.038 0.55261-2.1428 0.90618-2.4531 0.78711-0.3102-0.11906-0.9501-9e-3 -1.4238 0.24414-0.6653 0.35604-1.0173 0.30883-1.5372-0.21093-0.37-0.37015-0.6718-0.92207-0.6718-1.2266 0-0.66569-1.9106-0.54081-2.7813 0.18165-0.3282 0.27238-1.1399 0.43346-1.8027 0.35742-1.1584-0.13279-1.2105-0.23942-1.332-2.7598l-0.125-2.625-2.6192-0.23828c-1.7258-0.15648-2.9987-0.53679-3.7324-1.1211-0.6125-0.48777-2.1072-1.3768-3.3203-1.9746-1.213-0.59788-2.7349-1.506-3.3828-2.0156-0.9819-0.77229-1.8085-0.93843-4.959-1.0039l-3.7793-0.0781-0.125 2.623-0.127 2.6211-3.3242 0.12695c-3.2064 0.12079-3.3231 0.0908-3.3574-0.85742-0.019-0.54061-0.067-2.3284-0.1074-3.9707l-0.072-2.9863h-2.5703c-1.4151 3.2e-4 -8.2186 0.0418-15.117 0.0918l-12.541 0.0918v1.5c0 0.82547 0.1919 1.502 0.4277 1.502 0.2359 0 0.4297 0.19384 0.4297 0.42969s-0.663 0.42773-1.4726 0.42773c-1.0988 0-1.5415 0.22034-1.7461 0.86523-0.1508 0.4752-0.483 0.73202-0.7383 0.57422-0.2559-0.15781-0.3441-0.091-0.1973 0.14649 0.1468 0.2374-0.011 0.79667-0.3496 1.2441-0.5494 0.72559-0.6146 0.36785-0.6289-3.3027l-0.016-4.1152 1.6074-0.68164c1.58-0.66916 2.8481-1.1405 17.477-6.5234 4.0094-1.4754 15.008-5.5821 24.441-9.127 9.4338-3.5449 22.074-8.2855 28.088-10.535 6.014-2.2497 20.488-7.7005 32.162-12.111 23.75-8.9731 25.959-9.7976 27.354-10.229 0.2448-0.0756 0.4266-0.13177 0.5625-0.11133zm-941.55 0.87891c0.18749-0.064 0.25781 0.19309 0.25781 0.83984 0 1.2902-0.32034 1.5093-0.71289 0.48633-0.1418-0.36964-0.0406-0.89105 0.22656-1.1582 0.0905-0.0905 0.16601-0.14664 0.22852-0.16796zm231.95 1.1426c0.0425 0-0.0445 2.4578-0.19531 5.4648s-0.40223 9.1361-0.56055 13.617c-0.15832 4.4811-0.42133 8.2755-0.58398 8.4355-0.16269 0.16021-0.77953 0.40899-1.3691 0.55078-0.87469 0.21021-1.1701 0.0408-1.6074-0.91406-0.29481-0.64374-0.53515-1.7086-0.53515-2.3691s-0.38964-1.5889-0.86133-2.0606c-0.80871-0.80889-1.4263-0.85742-10.906-0.85742-6.2386 0-10.154 0.16357-10.318 0.42969-0.3319 0.53721-4.6165 0.56785-5.168 0.0371-0.22405-0.21565-5.0343-0.45792-10.691-0.53711-8.7792-0.12278-10.305-0.23935-10.412-0.79492-0.0935-0.48584 2.4081-1.6162 9.8594-4.4609 5.4902-2.096 17.471-6.6746 26.627-10.176 9.1556-3.5011 16.68-6.3652 16.723-6.3652zm-349.62 0.42579h10.506l-0.125 7.7207c-0.0693 4.2455-0.26114 7.7379-0.42773 7.7637-0.852 0.13136-4.9376 0.15237-7.5488 0.0391l-2.957-0.1289 0.26757-6.3047c0.14864-3.4672 0.27501-6.9288 0.2793-7.6953zm12.84 0c0.1801 0 0.3508 1.2561 0.37696 2.7891 0.0417 2.4479-0.19941 3.2177-0.81446 2.6074-0.31477-0.31231 0.0973-5.3965 0.4375-5.3965zm-14.961 0.10156c0.28541 0.0762 0.38053 0.83904 0.35351 2.6387-0.0262 1.7481-0.25115 2.9827-0.60156 3.2734-0.45673 0.37907-0.54788-0.11487-0.48828-2.6289 0.0482-2.0272 0.25382-3.1598 0.60156-3.2754 0.0486-0.0162 0.0943-0.0178 0.13477-8e-3zm260.01 3.4863c-0.0602 0.01-0.13112 0.0608-0.2168 0.14648-0.25926 0.25929-0.34474 0.87373-0.1875 1.3691 0.40943 1.29 0.65627 1.1132 0.65625-0.4707 0-0.74808-0.0712-1.0735-0.25195-1.0449zm-251 1.9883c-0.52445 0-1.0184 1.5826-0.66993 2.1465 0.14946 0.24181 0.45233 0.329 0.67188 0.19336 0.52019-0.32157 0.51882-2.3398-2e-3 -2.3398zm-4.791 0.42969c-0.44838 0-0.51764 1.4374-0.0898 1.8652 0.16117 0.16119 0.45591 0.12811 0.65625-0.0723 0.42561-0.42563-7e-3 -1.793-0.56641-1.793zm10.658 0.42773c0.17688 0 0.32227 0.67648 0.32227 1.502 0 0.98309-0.20207 1.498-0.58594 1.498-0.39851 0-0.50392-0.30685-0.32812-0.96289 0.14222-0.53065 0.26276-1.2072 0.26562-1.502 3e-3 -0.29481 0.14928-0.53516 0.32617-0.53516zm1041.2 0.11133c0.264-0.0376 0.4981 0.11751 0.4981 0.49609 0 0.37341-0.3083 0.67969-0.6817 0.67969s-0.6007-0.22776-0.5078-0.50781c0.1325-0.39756 0.4275-0.63026 0.6914-0.66797zm-1056.5 2.0332c0.23585 0 0.42578 0.57762 0.42578 1.2852s-0.18993 1.2871-0.42578 1.2871-0.42969-0.57957-0.42969-1.2871 0.19384-1.2852 0.42969-1.2852zm120.86 0.13672c0.71721-0.0575 1.3279 0.47647 1.3438 1.2559 4e-3 0.17689-0.57177 0.32422-1.2793 0.32422-1.5134 0-1.7801-1.0742-0.37696-1.5195 0.10549-0.0335 0.21003-0.0523 0.3125-0.0606zm-120.86 2.8633c0.23585 0 0.42578 0.66499 0.42578 1.4766 0 0.81153-0.18993 1.5945-0.42578 1.7402-0.25897 0.16007-0.42969-0.42342-0.42969-1.4746 0-0.95728 0.19384-1.7422 0.42969-1.7422zm15.229 0.61914c0.15137-3e-3 0.28547 0.0317 0.36914 0.11524 0.1345 0.1345 0.14115 0.41032 0.0156 0.61328-0.30106 0.48673-1.4648 0.47727-1.4648-0.0137 0-0.355 0.62597-0.70418 1.0801-0.71484zm-10.252 1.6738c-0.15378-0.0257-0.26172 0.0685-0.26172 0.25586 0 0.24974 0.19382 0.45508 0.42969 0.45508 0.23582 0 0.42774-0.0854 0.42773-0.18946 0-0.10405-0.19188-0.30932-0.42773-0.45507-0.0589-0.0364-0.11667-0.0579-0.16797-0.0664zm9.9336 0.41016c0.26588-0.0303 0.53341 0.13009 0.67383 0.49609 0.17787 0.46351-0.0106 0.66211-0.62695 0.66211-0.48863 0-0.80316-0.22892-0.70899-0.51172 0.13237-0.39699 0.39622-0.61621 0.66211-0.64648zm-12.766 6.293 5.2871 0.10743 5.2871 0.10937v1.3984c0 1.1633-0.15903 1.3965-0.96289 1.3965-0.53105 0-1.225 0.0706-1.5391 0.15821-0.31399 0.0875-1.4387 7e-3 -2.5-0.18164-1.0612-0.18804-2.7516-0.35547-3.7539-0.37305-1.7336-0.0302-1.8184-0.0957-1.8184-1.3242zm-2.0996 0.01c0.2106 0 0.38086 0.27731 0.38086 0.61719 0 0.6921-0.60706 1.2055-0.98242 0.83008-0.33463-0.3346 0.12826-1.4473 0.60156-1.4473zm10.068 1.0137c-0.34358-9.1e-4 -0.6689 0.37698-0.44922 0.73242 0.13565 0.21955 0.42846 0.39844 0.65039 0.39844 0.46093 0 0.53639-0.58061 0.12891-0.98828-0.0991-0.0991-0.21556-0.14243-0.33008-0.14258zm-3.8711 0.27344c-0.10406 0-0.30931 0.19188-0.45508 0.42773-0.14577 0.23584-0.0603 0.42969 0.18945 0.42969 0.24977 0 0.45508-0.19385 0.45508-0.42969 0-0.23585-0.0855-0.42773-0.18945-0.42773zm665.62 2.0879c0.16876-3e-3 0.27889 0.0272 0.31641 0.0879 0.14022 0.22696 0.4367 0.29971 0.65625 0.16406 0.21956-0.13565 0.39843 0.0656 0.39843 0.44727 0 0.39521-0.20393 0.56842-0.47265 0.40234-0.32947-0.20368-0.34895-0.0508-0.0664 0.50977 0.58076 1.1523 7e-3 2.9765-0.88672 2.8203-0.4361-0.0763-0.86836 0.26532-1.0859 0.85742-0.50199 1.3648-0.57019 4.6576-0.10742 5.2285 1.1346 1.4001 2.0696 3.6191 1.7461 4.1426-0.1964 0.31836-0.26227 0.7298-0.14649 0.91796 0.11635 0.18814-0.37807 0.34375-1.0996 0.34376-1.1751 0-1.5286 0.35763-1.3652 1.3926 0.028 0.17689-1.3467 0.32827-3.0566 0.33399-1.7098 6e-3 -4.9431 0.0764-7.1836 0.1582-2.2404 0.0819-9.139 0.17268-15.33 0.20313l-11.256 0.0566v8.5762l-2.0371 0.0566c-1.1202 0.0304-4.9291 0.17387-8.4668 0.32031l-6.4336 0.26563-0.0977 4.6113c-0.0545 2.5354 0.0669 4.6094 0.27148 4.6094 0.54545 0 4.7038 2.7298 4.7324 3.1074 0.0527 0.67902-2.16 0.28145-2.9766-0.53516-0.85762-0.85761-0.85742-0.85761-0.85742 0 0 0.66386-0.26479 0.84596-1.1777 0.80079-2.1062-0.10434-3.1094-0.42162-3.1094-0.97852 0-0.30021-0.67863-0.90886-1.5078-1.3555-0.89036-0.4795-1.4202-1.0438-1.293-1.377 0.11849-0.31037 0.0576-0.46577-0.13672-0.3457-0.19426 0.12006-1.0397 5e-3 -1.8789-0.25196-0.83933-0.25759-2.0316-0.33883-2.6504-0.18359-1.0789 0.27085-1.0939 0.31328-0.36719 1.0625 0.4168 0.42963 1.5257 1.2918 2.4648 1.918 1.3959 0.93069 1.5372 1.1406 0.77539 1.1406-0.51258 0-1.0562-0.20192-1.209-0.44922-0.17495-0.28294-0.46221-0.3024-0.77539-0.0508-0.27386 0.22007-1.552 0.39686-2.8398 0.39258-1.9301-6e-3 -2.4793-0.18206-3.1211-0.99805-0.42838-0.54451-1.8439-1.6005-3.1465-2.3457-1.9311-1.1048-2.6502-1.303-3.8906-1.0703-1.5008 0.28156-1.5102 0.29784-0.72851 1.1621 0.43566 0.48182 1.5664 1.2832 2.5098 1.7812 1.4741 0.77805 1.5806 0.92609 0.77344 1.0527-1.1481 0.18015-6.1348-2.4235-6.1348-3.2031 0-1.0253-2.2052-0.58427-4.7168 0.9414-1.3589 0.82546-2.5902 1.5-2.7363 1.5-0.14537 0-0.26563-1.1375-0.26563-2.5273 0-2.0101 0.15506-2.5852 0.75196-2.8164 0.88936-0.34459 9.4259-3.5024 23.049-8.5215 8.5851-3.163 23.799-8.8107 52.74-19.58 4.2452-1.5797 9.0176-3.3736 10.604-3.9863 1.2723-0.49166 2.316-0.77753 2.8223-0.78711zm-321.04 4.8106c0.0799-2e-3 0.13279 8e-3 0.1543 0.0293h2e-3c0.0861 0.0861-0.0118 4.0141-0.21679 8.7285-0.20424 4.7144-0.50314 11.757-0.66407 15.648-0.18542 4.4835-0.46857 7.1881-0.77539 7.3848-0.27101 0.17367-0.54542 0.0314-0.62304-0.32226-0.19296-0.87946-0.4673-0.79448-1.4395 0.4414-0.93785 1.1923-2.9258 1.4826-2.9258 0.42774 0-0.47499-0.49476-0.64258-1.8984-0.64258-1.5242 0-1.9575 0.16973-2.1758 0.85742-0.18306 0.57683-0.64633 0.85738-1.4199 0.85742-1.0714 4e-5 -1.1486-0.12671-1.125-1.8242l0.0234-1.8203 4.0488-0.21484c2.2266-0.11792 4.2892-0.36978 4.584-0.56055 0.29481-0.19083 0.53711-0.87895 0.53711-1.5254 0-0.64647 0.19662-1.3685 0.43555-1.6074 0.23898-0.23898 0.53765-3.5781 0.66601-7.418 0.18983-5.6809 0.12996-6.919-0.32617-6.6445-0.44832 0.26964-0.45599 0.20909-0.0391-0.30664 0.32642-0.40355 0.56653-2.5478 0.64258-5.7285l0.12109-5.084 1.207-0.40235c0.4975-0.16556 0.96724-0.26817 1.207-0.27343zm909.03 3.4004v15.76l-3.1074 1.1641c-4.4118 1.653-10.683 3.9513-14.688 5.3808-1.8868 0.67338-4.7344 1.7131-6.3262 2.3125l-2.8925 1.0898v-7.6973c0-6.8936 0.076-7.736 0.748-8.0898 0.6454-0.33971 11.928-4.6115 22.943-8.6875zm-679.67 1.2715c0.3337 0.0453 0.38894 2.4581 0.3164 11.102l-0.10156 11.74-3 1.0137v2e-3c-1.6509 0.55823-3.019 1.0156-3.0391 1.0156-0.02 1e-3 -0.94797-0.95749-2.0645-2.1367-1.1165-1.1792-1.8708-2.1535-1.6777-2.1621 0.19296-9e-3 -0.31883-0.30735-1.1367-0.66211-0.81788-0.35475-1.591-0.78215-1.7168-0.94922-0.31903-0.42461-2.0623-1.2148-4.0879-1.8555-3.7924-1.1852-6.8816-1.0412-10.779 0.1836-0.43182 0.43174-2.2988 0.36657-2.2988-0.0801 0-0.20806-0.77442-0.38948-1.7227-0.40234-1.01-0.0143-1.6193 0.14693-1.4688 0.39062 0.16209 0.26226-1.6179 0.37321-4.8164 0.29688-4.6998-0.11221-5.0794-0.18389-5.1895-0.97852-0.1042-0.75179 1.1922-1.3445 10.506-4.8008 5.8436-2.1686 14.813-5.4987 19.932-7.3984 5.1192-1.8998 9.8258-3.4531 10.459-3.4531 0.63321 0 1.409-0.33923 1.7246-0.75196 0.0595-0.0789 0.11454-0.11971 0.16211-0.11328zm826.95 10.373c0.069 0.0772 0.2096 4.8955 0.3125 10.709l0.1875 10.57-1.6387 0.54101c-0.9009 0.29734-1.6347 0.71569-1.6347 0.92774 0 0.21197-0.1959 0.26482-0.4317 0.11914-0.2359-0.14575-0.4297 0.0346-0.4297 0.40231 0 0.3677-0.1899 0.6699-0.4258 0.6699-0.2358 0-0.4296 0.2839-0.4296 0.6309 0 0.5427-1.5148 0.6101-10.828 0.4785-12.883-0.1821-16.225-0.5675-19.053-2.1894-2.7768-1.5927-7.91-1.8785-11.209-0.625-1.2046 0.45771-2.4854 0.71916-2.8476 0.58008-0.3622-0.13894-0.6582-0.0402-0.6582 0.2207 0 0.26105-0.2982 0.47455-0.6602 0.47455-0.3621 0-1.1291 0.3101-1.7051 0.6875-1.3464 0.8822-4.0006 1.4872-4.3125 0.9825-0.1315-0.213 0.1117-0.5052 0.5391-0.6485 0.4276-0.1433 3.7702-1.6619 7.4258-3.373s7.1252-3.256 7.7148-3.4336c0.5896-0.17752 1.3186-0.5172 1.6191-0.75781 0.7549-0.60428 1.099-0.14363 1.5977 2.1465 0.572 2.6267 1.6436 3.0689 1.2344 0.50977-0.3684-2.3028 0.4672-1.9846 0.9023 0.34375 0.3013 1.6124 0.9014 2.6855 1.5059 2.6855 0.3947 0-0.1497-3.0468-0.9707-5.4297l-0.6094-1.7637 1.541-0.73828c4.6035-2.2031 33.158-14.839 33.264-14.721zm-147.08 5.8457c0.1243 0.12479 0.2265 4.5418 0.2265 9.8164 0 7.2974-0.1298 9.6312-0.5371 9.7578-1.274 0.3953-5.1609 0.5071-9.541 0.2734-2.5944-0.1385-7.4655-0.2473-10.826-0.2402l-6.1113 0.012v-10.012l4.8242-1.7363c2.6532-0.95415 8.6283-3.1658 13.279-4.916 4.651-1.7502 8.5612-3.0799 8.6856-2.9551zm-724.55 0.21485c0.3718-0.0399 0.51367 0.11132 0.51367 0.48437 0 0.47028-0.41294 0.67188-1.373 0.67188-1.4651 0-1.2509-0.55345 0.40821-1.0547 0.17857-0.0539 0.32725-0.0883 0.45117-0.10156zm23.67 1.2031c0.42748 0 0.85359 0.0251 1.1777 0.0742 0.64864 0.0983 0.11944 0.17773-1.1777 0.17773-1.2964 0-1.8282-0.0794-1.1797-0.17773 0.32433-0.0492 0.75222-0.0742 1.1797-0.0742zm374.4 1.668c0.5259 0 0.8125 0.30181 0.8125 0.85742 0 0.87131-0.083 0.90556-1.3692 0.56641-0.9586-0.2527-0.5012-1.4238 0.5567-1.4238zm-405.36 0.15039c0.2386 0.0226 0.63139 0.21133 1.125 0.59961 0.59405 0.46727 0.95781 0.97383 0.80859 1.123-0.44754 0.44755-0.81226 0.31469-1.6309-0.58985-0.67323-0.74384-0.70041-1.1705-0.30273-1.1328zm4.0957 0.17969c0.0332-6e-3 0.0762-5e-3 0.12891 4e-3 0.25285 0.0413 0.73322 0.24578 1.4414 0.60938 0.82518 0.4238 1.2462 0.76919 0.9375 0.76953-0.3106 3.9e-4 -0.44267 0.19579-0.29687 0.43164 0.52586 0.85076-0.51493 0.4039-1.498-0.64258-0.70142-0.74664-0.94543-1.1331-0.71289-1.1719zm8.6582 0.30273c0.24954 0.0369 0.68245 0.27663 1.1055 0.62891 0.55717 0.46977 0.81824 0.86016 0.56836 0.86719-0.66479 0.0209-2.1601-1.1584-1.8555-1.4629 0.0357-0.0357 0.0985-0.0454 0.18164-0.0332zm39.65 4.1524v1.7558c0 1.0305-0.29204 2.0764-0.70898 2.5371-0.42467 0.46916-0.51115 0.78516-0.21485 0.78516 0.27245 0 0.49415 0.18993 0.49415 0.42578h4e-3c0 0.58418-1.5944 0.54625-1.9609-0.0469-0.16209-0.26222-0.0283-0.6457 0.29688-0.85157 0.42724-0.27109 0.44085-0.3746 0.0527-0.3789-0.3082-4e-3 -0.53711-0.55318-0.53711-1.293 0-1.733-0.76464-1.6467-0.93359 0.10547-0.13379 1.3871-0.1398 1.3898-0.70703 0.39453-0.66294-1.1632-0.16128-1.7008 2.6074-2.7969zm-257.72 1.6465c0.23585 0 0.42968 0.28881 0.42968 0.64258s-0.19383 0.64453-0.42968 0.64453c-0.23573 0-0.42774-0.29076-0.42774-0.64453s0.19201-0.64258 0.42774-0.64258zm-2.3594 0.11133c0.12464-0.0449 0.21484 0.24386 0.21484 0.88867 0 0.62894-0.18016 1.1445-0.40234 1.1445-0.22211 0-0.32557-0.41242-0.22851-0.91601 0.13336-0.69292 0.29137-1.0722 0.41601-1.1172zm172.96 0.3164c-2.1925 0-2.2126 0.0101-1.3984 0.82227 1.009 1.0062 2.494 0.9824 3.1406-0.0527 0.43768-0.70096 0.28667-0.76951-1.7422-0.76954zm107.17 0.0137c-1.7986-0.0207-1.4181 0.53486 1.0703 1.5527 1.238 0.50638 2.3224 0.85114 2.4082 0.76953 0.41924-0.39695-2.4468-2.3108-3.4785-2.3223zm11.621 0.0976c-1.4577 0.0482-1.6945 0.5363-0.18165 0.91602 0.57318 0.14382 1.2961 0.51644 1.6074 0.82617 0.31131 0.30973 0.94932 0.77504 1.416 1.0352 1.0583 0.59017 1.681 0.26318 0.96875-0.50782-0.29245-0.31651-0.67669-0.48596-0.85351-0.3789-0.30545 0.18481-0.4752-0.42107-0.38086-1.3574 0.0239-0.23585-0.82175-0.47321-1.8789-0.5254-0.25654-0.0126-0.48904-0.0147-0.69726-8e-3zm-128.32 0.11524c0.38513 0.02 0.59375 0.10963 0.59375 0.26757 0 0.20583 0.9653 0.96582 2.1445 1.6914s2.1445 1.3985 2.1445 1.4961-0.0507 0.159-0.10937 0.13477c-0.059-0.0242-0.68504-0.19359-1.3926-0.37695-3.13-0.81123-6.4424-2.8237-5.0391-3.0625 0.71076-0.12093 1.2731-0.17044 1.6582-0.15039zm138.2 0.68554c0.28307 0.015 0.84789 0.14534 1.4551 0.34571 0.80974 0.26717 2.2422 0.36341 3.1836 0.21289 1.4986-0.23962 2.0124-0.0727 4.1309 1.334 1.3307 0.88361 2.4199 1.6752 2.4199 1.7598 0 0.22697-0.53455 0.13723-1.502-0.25196-0.47169-0.18984-1.0009-0.26054-1.1777-0.1582-0.17696 0.10235-0.32032-0.0292-0.32032-0.29297 0-0.26374-0.19955-0.36029-0.4414-0.21093-0.24156 0.1494-0.38463 0.0263-0.32031-0.2754 0.0649-0.30163-0.0747-0.57264-0.31055-0.60351-0.23585-0.031-0.77446-0.21087-1.1973-0.39649-1.026-0.45041-1.5741 0.1494-0.62304 0.68164 1.0745 0.60132 0.91785 1.2344-0.30469 1.2344-0.96312 0-5.5505-2.975-5.1719-3.3535 0.0226-0.0226 0.0853-0.0304 0.17969-0.0254zm18.033 0.375c0.22527 0 1.5087 0.77342 2.8555 1.7168 2.1864 1.5316 2.3274 1.7129 1.3066 1.7129-0.62864 0-1.1426-0.18529-1.1426-0.41406 0-0.22882-0.77137-0.85696-1.7129-1.3945-1.6342-0.93326-2.1873-1.6211-1.3066-1.6211zm-5.7266 0.0117c0.35533 0.0452 1.2457 0.55819 2.5566 1.4902 1.1611 0.82546 1.8257 1.4889 1.4727 1.4746-0.72098-0.0283-3.6412-1.8446-4.0645-2.5293-0.19736-0.31929-0.17806-0.46263 0.0352-0.43555zm17.865 0.43555c0.64441-0.0143 1.1586 0.087 1.0156 0.31836-0.11406 0.18451 0.47675 0.80236 1.3125 1.375 0.83561 0.57259 1.2952 1.1164 1.0234 1.207-0.27189 0.0906-0.814-0.0931-1.2051-0.41016-0.50198-0.40673-0.6158-0.42088-0.38867-0.043 0.17767 0.29481 0.11885 0.53711-0.13086 0.53711-0.24972 0-0.45508-0.25975-0.45508-0.57617 0-0.31646-0.80498-0.81708-1.7871-1.1113-1.3207-0.39567-1.6263-0.63404-1.1777-0.91796 0.37356-0.2364 1.1486-0.36481 1.793-0.37891zm-4.9141 8e-3c0.97884-0.0174 1.3252 0.1325 1.1113 0.47852-0.2104 0.34041-0.0754 0.40834 0.42383 0.21679 0.44539-0.17093 0.6307-0.11158 0.46875 0.1504-0.14722 0.23806 0.42315 0.72025 1.2656 1.0723 0.84248 0.35197 1.5293 0.83177 1.5293 1.0644 0 0.23267-0.0468 0.40049-0.10547 0.37305-0.059-0.0272-0.46281-0.14194-0.89648-0.25391-0.43367-0.11192-1.4221-0.61765-2.1973-1.127-0.77529-0.50934-1.7708-1.1565-2.2129-1.4375-0.71655-0.45539-0.65184-0.51481 0.61328-0.53711zm-220.35 0.40235c-0.24985 0-0.33704 0.19383-0.19141 0.42968 0.14576 0.23584 0.35102 0.42969 0.45508 0.42969s0.19141-0.19385 0.19141-0.42969c0-0.23585-0.20534-0.42968-0.45508-0.42968zm73.188 1.2871c0.35392 0 0.5247 0.19384 0.37891 0.42969-0.1458 0.23585-0.55639 0.42969-0.91016 0.42969-0.35391 0-0.52275-0.19384-0.37695-0.42969 0.14579-0.23585 0.55443-0.42967 0.9082-0.42969zm972.03 0.42969c0.1351 1e-3 2.0309 0.78806 4.2148 1.75 2.1854 0.96252 4.3099 1.8542 4.7227 1.9805 0.4126 0.1263 0.7519 0.4739 0.7519 0.7734 0 0.4752-2.3462 1.1519-2.7148 0.7832-0.076-0.076-1.6562-0.1836-3.5117-0.2441l-3.3731-0.1133-0.166-2.4649c-0.091-1.3561-0.057-2.4648 0.076-2.4648zm-459.91 0.0566c0.2332 3e-3 0.4486 0.0332 0.5938 0.0918 0.2902 0.1175-0.052 0.20585-0.7598 0.19727-0.7074-9e-3 -0.9446-0.10609-0.5273-0.21485 0.2086-0.0543 0.4602-0.0771 0.6933-0.0742zm400.69 1.248c1.1917 0 2.4486 0.13599 2.873 0.41016 0.4477 0.28932-0.3084 0.41953-2.4902 0.42382-1.9818 4e-3 -3.0367-0.15268-2.8692-0.42382 0.1694-0.27421 1.2949-0.41016 2.4864-0.41016zm3.8398 0.67188c0.4944-0.10249 2.5407 0.8428 3.6485 1.75 0.6448 0.528 1.0795 0.963 0.9609 0.9687-0.4661 0.021-4.7188-2.3286-4.7188-2.6074 0-0.0606 0.04-0.0968 0.1094-0.11132zm-39.26 1.0352c-0.8464 0-1.5434 0.14124-1.3711 0.41992 0.1458 0.23582 1.169 0.42612 2.2754 0.42182 1.4569 0 1.8329-0.1208 1.3671-0.42182-0.4313-0.27867-1.4249-0.41992-2.2714-0.41992zm-80.461 0.41992c-0.4856 0-0.8867 0.19182-0.8867 0.42772 0 0.2358 0.2812 0.4297 0.6211 0.4297 0.3398 0 0.7351-0.1939 0.8809-0.4297 0.1458-0.2359-0.1299-0.42772-0.6153-0.42772zm125.24 0.91602c0.3389 0 0.8741 0.104 1.6582 0.3222 0.5875 0.1635 0.874 0.3936 0.6406 0.5098-0.6621 0.3297-2.7832-0.046-2.7832-0.4922 0-0.2247 0.1455-0.337 0.4844-0.3398zm-230.09 77.982c0.1033 0 0.1894 0.1938 0.1894 0.4297 0 0.2358-0.2014 0.4277-0.4512 0.4277-0.2505 0-0.3372-0.1919-0.1914-0.4277 0.1458-0.2359 0.3488-0.4297 0.4532-0.4297z"/>
 </g>
</svg>
